<mxfile host="app.diagrams.net" modified="2023-07-10T08:25:53.852Z" agent="Mozilla/5.0 (Windows NT 10.0; Win64; x64) AppleWebKit/537.36 (KHTML, like Gecko) Chrome/114.0.0.0 Safari/537.36" etag="uKnV38R7VXnCCbAeJrXw" version="21.6.1" type="github" pages="4">
  <diagram name="Page-1" id="Ad4Q3GiS7QPUDUS8tUGH">
    <mxGraphModel dx="1434" dy="707" grid="1" gridSize="10" guides="1" tooltips="1" connect="1" arrows="1" fold="1" page="1" pageScale="1" pageWidth="850" pageHeight="1100" math="0" shadow="0">
      <root>
        <mxCell id="0" />
        <mxCell id="1" parent="0" />
        <mxCell id="c3B1Q7E-CsR6DV4NtfHc-1" value="เริ่ม" style="ellipse;whiteSpace=wrap;html=1;" vertex="1" parent="1">
          <mxGeometry x="70" y="40" width="80" height="40" as="geometry" />
        </mxCell>
        <mxCell id="c3B1Q7E-CsR6DV4NtfHc-2" value="ตรวจสอบสิทธิ์การใช้งาน" style="rounded=1;whiteSpace=wrap;html=1;" vertex="1" parent="1">
          <mxGeometry x="40" y="120" width="140" height="30" as="geometry" />
        </mxCell>
        <mxCell id="c3B1Q7E-CsR6DV4NtfHc-3" value="" style="edgeStyle=orthogonalEdgeStyle;rounded=0;orthogonalLoop=1;jettySize=auto;html=1;" edge="1" parent="1" source="c3B1Q7E-CsR6DV4NtfHc-1" target="c3B1Q7E-CsR6DV4NtfHc-2">
          <mxGeometry relative="1" as="geometry" />
        </mxCell>
        <mxCell id="c3B1Q7E-CsR6DV4NtfHc-4" value="มี ?" style="rhombus;whiteSpace=wrap;html=1;" vertex="1" parent="1">
          <mxGeometry x="80" y="180" width="60" height="60" as="geometry" />
        </mxCell>
        <mxCell id="c3B1Q7E-CsR6DV4NtfHc-5" value="" style="edgeStyle=orthogonalEdgeStyle;rounded=0;orthogonalLoop=1;jettySize=auto;html=1;" edge="1" parent="1" source="c3B1Q7E-CsR6DV4NtfHc-2" target="c3B1Q7E-CsR6DV4NtfHc-4">
          <mxGeometry relative="1" as="geometry" />
        </mxCell>
        <mxCell id="c3B1Q7E-CsR6DV4NtfHc-6" style="edgeStyle=orthogonalEdgeStyle;rounded=0;orthogonalLoop=1;jettySize=auto;html=1;entryX=-0.022;entryY=0.676;entryDx=0;entryDy=0;entryPerimeter=0;" edge="1" parent="1" source="c3B1Q7E-CsR6DV4NtfHc-4" target="c3B1Q7E-CsR6DV4NtfHc-20">
          <mxGeometry relative="1" as="geometry">
            <Array as="points">
              <mxPoint x="110" y="644" />
            </Array>
            <mxPoint x="265" y="750" as="targetPoint" />
          </mxGeometry>
        </mxCell>
        <mxCell id="c3B1Q7E-CsR6DV4NtfHc-7" value="ไม่" style="edgeLabel;html=1;align=center;verticalAlign=middle;resizable=0;points=[];" vertex="1" connectable="0" parent="c3B1Q7E-CsR6DV4NtfHc-6">
          <mxGeometry x="-0.8925" y="1" relative="1" as="geometry">
            <mxPoint as="offset" />
          </mxGeometry>
        </mxCell>
        <mxCell id="c3B1Q7E-CsR6DV4NtfHc-8" value="ตรวจสอบ Account &lt;br&gt;สถานะการใช้งาน" style="rounded=1;whiteSpace=wrap;html=1;" vertex="1" parent="1">
          <mxGeometry x="256.35" y="189" width="170" height="40" as="geometry" />
        </mxCell>
        <mxCell id="c3B1Q7E-CsR6DV4NtfHc-9" value="" style="edgeStyle=orthogonalEdgeStyle;rounded=0;orthogonalLoop=1;jettySize=auto;html=1;" edge="1" parent="1" source="c3B1Q7E-CsR6DV4NtfHc-4" target="c3B1Q7E-CsR6DV4NtfHc-8">
          <mxGeometry relative="1" as="geometry">
            <Array as="points">
              <mxPoint x="220" y="210" />
              <mxPoint x="220" y="210" />
            </Array>
          </mxGeometry>
        </mxCell>
        <mxCell id="c3B1Q7E-CsR6DV4NtfHc-10" value="ใช่" style="edgeLabel;html=1;align=center;verticalAlign=middle;resizable=0;points=[];" vertex="1" connectable="0" parent="c3B1Q7E-CsR6DV4NtfHc-9">
          <mxGeometry x="-0.7797" y="-1" relative="1" as="geometry">
            <mxPoint as="offset" />
          </mxGeometry>
        </mxCell>
        <mxCell id="c3B1Q7E-CsR6DV4NtfHc-11" value="มีใน&lt;br&gt;ระบบ &lt;br&gt;?" style="rhombus;whiteSpace=wrap;html=1;" vertex="1" parent="1">
          <mxGeometry x="303.85" y="268" width="75" height="70" as="geometry" />
        </mxCell>
        <mxCell id="c3B1Q7E-CsR6DV4NtfHc-12" value="" style="edgeStyle=orthogonalEdgeStyle;rounded=0;orthogonalLoop=1;jettySize=auto;html=1;" edge="1" parent="1" source="c3B1Q7E-CsR6DV4NtfHc-8" target="c3B1Q7E-CsR6DV4NtfHc-11">
          <mxGeometry relative="1" as="geometry" />
        </mxCell>
        <mxCell id="c3B1Q7E-CsR6DV4NtfHc-13" value="status&lt;br style=&quot;border-color: var(--border-color);&quot;&gt;= 1 ?" style="rhombus;whiteSpace=wrap;html=1;" vertex="1" parent="1">
          <mxGeometry x="311.35" y="388" width="60" height="60" as="geometry" />
        </mxCell>
        <mxCell id="c3B1Q7E-CsR6DV4NtfHc-14" value="" style="edgeStyle=orthogonalEdgeStyle;rounded=0;orthogonalLoop=1;jettySize=auto;html=1;" edge="1" parent="1" source="c3B1Q7E-CsR6DV4NtfHc-11" target="c3B1Q7E-CsR6DV4NtfHc-13">
          <mxGeometry relative="1" as="geometry" />
        </mxCell>
        <mxCell id="c3B1Q7E-CsR6DV4NtfHc-15" value="ใช่" style="edgeLabel;html=1;align=center;verticalAlign=middle;resizable=0;points=[];" vertex="1" connectable="0" parent="c3B1Q7E-CsR6DV4NtfHc-14">
          <mxGeometry x="-0.3254" y="2" relative="1" as="geometry">
            <mxPoint x="-2" as="offset" />
          </mxGeometry>
        </mxCell>
        <mxCell id="c3B1Q7E-CsR6DV4NtfHc-16" value="Locked&lt;br style=&quot;border-color: var(--border-color);&quot;&gt;= 1 ?&amp;nbsp;" style="rhombus;whiteSpace=wrap;html=1;" vertex="1" parent="1">
          <mxGeometry x="311.35" y="518" width="60" height="60" as="geometry" />
        </mxCell>
        <mxCell id="c3B1Q7E-CsR6DV4NtfHc-17" value="" style="edgeStyle=orthogonalEdgeStyle;rounded=0;orthogonalLoop=1;jettySize=auto;html=1;" edge="1" parent="1" source="c3B1Q7E-CsR6DV4NtfHc-13" target="c3B1Q7E-CsR6DV4NtfHc-16">
          <mxGeometry relative="1" as="geometry" />
        </mxCell>
        <mxCell id="c3B1Q7E-CsR6DV4NtfHc-18" value="ไม่" style="edgeLabel;html=1;align=center;verticalAlign=middle;resizable=0;points=[];" vertex="1" connectable="0" parent="c3B1Q7E-CsR6DV4NtfHc-17">
          <mxGeometry x="-0.3745" relative="1" as="geometry">
            <mxPoint as="offset" />
          </mxGeometry>
        </mxCell>
        <mxCell id="c3B1Q7E-CsR6DV4NtfHc-19" style="edgeStyle=orthogonalEdgeStyle;rounded=0;orthogonalLoop=1;jettySize=auto;html=1;entryX=0;entryY=0.5;entryDx=0;entryDy=0;" edge="1" parent="1" source="c3B1Q7E-CsR6DV4NtfHc-20" target="c3B1Q7E-CsR6DV4NtfHc-64">
          <mxGeometry relative="1" as="geometry">
            <Array as="points">
              <mxPoint x="239" y="1120" />
            </Array>
          </mxGeometry>
        </mxCell>
        <mxCell id="c3B1Q7E-CsR6DV4NtfHc-20" value="1" style="ellipse;whiteSpace=wrap;html=1;aspect=fixed;" vertex="1" parent="1">
          <mxGeometry x="213.75" y="610" width="50" height="50" as="geometry" />
        </mxCell>
        <mxCell id="c3B1Q7E-CsR6DV4NtfHc-21" style="edgeStyle=orthogonalEdgeStyle;rounded=0;orthogonalLoop=1;jettySize=auto;html=1;" edge="1" parent="1" source="c3B1Q7E-CsR6DV4NtfHc-22" target="c3B1Q7E-CsR6DV4NtfHc-20">
          <mxGeometry relative="1" as="geometry">
            <Array as="points">
              <mxPoint x="140" y="303" />
              <mxPoint x="140" y="630" />
            </Array>
          </mxGeometry>
        </mxCell>
        <mxCell id="c3B1Q7E-CsR6DV4NtfHc-22" value="rerturn Error Code&amp;nbsp;001&lt;span style=&quot;font-size: medium; text-align: start;&quot;&gt;&lt;/span&gt;" style="rounded=1;whiteSpace=wrap;html=1;" vertex="1" parent="1">
          <mxGeometry x="150" y="283" width="77.5" height="40" as="geometry" />
        </mxCell>
        <mxCell id="c3B1Q7E-CsR6DV4NtfHc-23" style="edgeStyle=orthogonalEdgeStyle;rounded=0;orthogonalLoop=1;jettySize=auto;html=1;" edge="1" parent="1" source="c3B1Q7E-CsR6DV4NtfHc-11" target="c3B1Q7E-CsR6DV4NtfHc-22">
          <mxGeometry relative="1" as="geometry">
            <mxPoint x="240.10000000000002" y="408" as="targetPoint" />
          </mxGeometry>
        </mxCell>
        <mxCell id="c3B1Q7E-CsR6DV4NtfHc-24" value="ไม่" style="edgeLabel;html=1;align=center;verticalAlign=middle;resizable=0;points=[];" vertex="1" connectable="0" parent="c3B1Q7E-CsR6DV4NtfHc-23">
          <mxGeometry x="-0.6573" y="2" relative="1" as="geometry">
            <mxPoint as="offset" />
          </mxGeometry>
        </mxCell>
        <mxCell id="c3B1Q7E-CsR6DV4NtfHc-25" style="edgeStyle=orthogonalEdgeStyle;rounded=0;orthogonalLoop=1;jettySize=auto;html=1;entryX=0.5;entryY=0;entryDx=0;entryDy=0;" edge="1" parent="1" source="c3B1Q7E-CsR6DV4NtfHc-26" target="c3B1Q7E-CsR6DV4NtfHc-20">
          <mxGeometry relative="1" as="geometry" />
        </mxCell>
        <mxCell id="c3B1Q7E-CsR6DV4NtfHc-26" value="rerturn Error Code&amp;nbsp;011&lt;span style=&quot;font-size: medium; text-align: start;&quot;&gt;&lt;/span&gt;" style="rounded=1;whiteSpace=wrap;html=1;" vertex="1" parent="1">
          <mxGeometry x="200" y="528" width="77.5" height="40" as="geometry" />
        </mxCell>
        <mxCell id="c3B1Q7E-CsR6DV4NtfHc-27" value="" style="edgeStyle=orthogonalEdgeStyle;rounded=0;orthogonalLoop=1;jettySize=auto;html=1;" edge="1" parent="1" source="c3B1Q7E-CsR6DV4NtfHc-16" target="c3B1Q7E-CsR6DV4NtfHc-26">
          <mxGeometry relative="1" as="geometry" />
        </mxCell>
        <mxCell id="c3B1Q7E-CsR6DV4NtfHc-28" value="ใช่" style="edgeLabel;html=1;align=center;verticalAlign=middle;resizable=0;points=[];" vertex="1" connectable="0" parent="c3B1Q7E-CsR6DV4NtfHc-27">
          <mxGeometry x="-0.4608" y="1" relative="1" as="geometry">
            <mxPoint as="offset" />
          </mxGeometry>
        </mxCell>
        <mxCell id="c3B1Q7E-CsR6DV4NtfHc-29" style="edgeStyle=orthogonalEdgeStyle;rounded=0;orthogonalLoop=1;jettySize=auto;html=1;" edge="1" parent="1" source="c3B1Q7E-CsR6DV4NtfHc-30" target="c3B1Q7E-CsR6DV4NtfHc-20">
          <mxGeometry relative="1" as="geometry">
            <mxPoint x="240" y="610" as="targetPoint" />
            <Array as="points">
              <mxPoint x="180" y="418" />
              <mxPoint x="180" y="620" />
            </Array>
          </mxGeometry>
        </mxCell>
        <mxCell id="c3B1Q7E-CsR6DV4NtfHc-30" value="rerturn Error Code&amp;nbsp;004&lt;span style=&quot;font-size: medium; text-align: start;&quot;&gt;&lt;/span&gt;" style="rounded=1;whiteSpace=wrap;html=1;" vertex="1" parent="1">
          <mxGeometry x="200" y="398" width="77.5" height="40" as="geometry" />
        </mxCell>
        <mxCell id="c3B1Q7E-CsR6DV4NtfHc-31" value="" style="edgeStyle=orthogonalEdgeStyle;rounded=0;orthogonalLoop=1;jettySize=auto;html=1;" edge="1" parent="1" source="c3B1Q7E-CsR6DV4NtfHc-13" target="c3B1Q7E-CsR6DV4NtfHc-30">
          <mxGeometry relative="1" as="geometry" />
        </mxCell>
        <mxCell id="c3B1Q7E-CsR6DV4NtfHc-32" value="ใช่" style="edgeLabel;html=1;align=center;verticalAlign=middle;resizable=0;points=[];" vertex="1" connectable="0" parent="c3B1Q7E-CsR6DV4NtfHc-31">
          <mxGeometry x="-0.4608" y="2" relative="1" as="geometry">
            <mxPoint as="offset" />
          </mxGeometry>
        </mxCell>
        <mxCell id="c3B1Q7E-CsR6DV4NtfHc-33" value="" style="edgeStyle=orthogonalEdgeStyle;rounded=0;orthogonalLoop=1;jettySize=auto;html=1;entryX=0.1;entryY=0.5;entryDx=0;entryDy=0;entryPerimeter=0;" edge="1" parent="1" source="c3B1Q7E-CsR6DV4NtfHc-16" target="c3B1Q7E-CsR6DV4NtfHc-38">
          <mxGeometry relative="1" as="geometry">
            <mxPoint x="414" y="548" as="targetPoint" />
          </mxGeometry>
        </mxCell>
        <mxCell id="c3B1Q7E-CsR6DV4NtfHc-34" value="" style="edgeStyle=orthogonalEdgeStyle;rounded=0;orthogonalLoop=1;jettySize=auto;html=1;" edge="1" parent="1" source="c3B1Q7E-CsR6DV4NtfHc-38">
          <mxGeometry relative="1" as="geometry">
            <mxPoint x="530" y="548" as="targetPoint" />
          </mxGeometry>
        </mxCell>
        <mxCell id="c3B1Q7E-CsR6DV4NtfHc-35" value="ไม่" style="edgeLabel;html=1;align=center;verticalAlign=middle;resizable=0;points=[];" vertex="1" connectable="0" parent="c3B1Q7E-CsR6DV4NtfHc-34">
          <mxGeometry x="-0.3115" y="3" relative="1" as="geometry">
            <mxPoint as="offset" />
          </mxGeometry>
        </mxCell>
        <mxCell id="c3B1Q7E-CsR6DV4NtfHc-36" style="edgeStyle=orthogonalEdgeStyle;rounded=0;orthogonalLoop=1;jettySize=auto;html=1;entryX=0.5;entryY=0;entryDx=0;entryDy=0;" edge="1" parent="1" source="c3B1Q7E-CsR6DV4NtfHc-38" target="c3B1Q7E-CsR6DV4NtfHc-61">
          <mxGeometry relative="1" as="geometry">
            <mxPoint x="447" y="940" as="targetPoint" />
          </mxGeometry>
        </mxCell>
        <mxCell id="c3B1Q7E-CsR6DV4NtfHc-37" value="ใช่" style="edgeLabel;html=1;align=center;verticalAlign=middle;resizable=0;points=[];" vertex="1" connectable="0" parent="c3B1Q7E-CsR6DV4NtfHc-36">
          <mxGeometry x="-0.3215" y="2" relative="1" as="geometry">
            <mxPoint as="offset" />
          </mxGeometry>
        </mxCell>
        <mxCell id="c3B1Q7E-CsR6DV4NtfHc-38" value="Super&lt;br&gt;Admin ?" style="rhombus;whiteSpace=wrap;html=1;" vertex="1" parent="1">
          <mxGeometry x="414" y="512" width="66" height="72" as="geometry" />
        </mxCell>
        <mxCell id="c3B1Q7E-CsR6DV4NtfHc-39" value="" style="edgeStyle=orthogonalEdgeStyle;rounded=0;orthogonalLoop=1;jettySize=auto;html=1;" edge="1" parent="1" source="c3B1Q7E-CsR6DV4NtfHc-40" target="c3B1Q7E-CsR6DV4NtfHc-45">
          <mxGeometry relative="1" as="geometry" />
        </mxCell>
        <mxCell id="c3B1Q7E-CsR6DV4NtfHc-40" value="ตรวจสอบสิทธิ์การใช้งาน Company นี้ไหม&lt;span style=&quot;font-size: medium; text-align: start;&quot;&gt;&lt;/span&gt;" style="rounded=1;whiteSpace=wrap;html=1;" vertex="1" parent="1">
          <mxGeometry x="530" y="528" width="110" height="42" as="geometry" />
        </mxCell>
        <mxCell id="c3B1Q7E-CsR6DV4NtfHc-41" value="" style="edgeStyle=orthogonalEdgeStyle;rounded=0;orthogonalLoop=1;jettySize=auto;html=1;" edge="1" parent="1" source="c3B1Q7E-CsR6DV4NtfHc-45" target="c3B1Q7E-CsR6DV4NtfHc-49">
          <mxGeometry relative="1" as="geometry" />
        </mxCell>
        <mxCell id="c3B1Q7E-CsR6DV4NtfHc-42" value="ใช่" style="edgeLabel;html=1;align=center;verticalAlign=middle;resizable=0;points=[];" vertex="1" connectable="0" parent="c3B1Q7E-CsR6DV4NtfHc-41">
          <mxGeometry x="-0.2859" relative="1" as="geometry">
            <mxPoint as="offset" />
          </mxGeometry>
        </mxCell>
        <mxCell id="c3B1Q7E-CsR6DV4NtfHc-43" style="edgeStyle=orthogonalEdgeStyle;rounded=0;orthogonalLoop=1;jettySize=auto;html=1;" edge="1" parent="1" source="c3B1Q7E-CsR6DV4NtfHc-45" target="c3B1Q7E-CsR6DV4NtfHc-51">
          <mxGeometry relative="1" as="geometry">
            <mxPoint x="680" y="645.9999999999998" as="targetPoint" />
          </mxGeometry>
        </mxCell>
        <mxCell id="c3B1Q7E-CsR6DV4NtfHc-44" value="ไม่" style="edgeLabel;html=1;align=center;verticalAlign=middle;resizable=0;points=[];" vertex="1" connectable="0" parent="c3B1Q7E-CsR6DV4NtfHc-43">
          <mxGeometry x="-0.0865" y="2" relative="1" as="geometry">
            <mxPoint as="offset" />
          </mxGeometry>
        </mxCell>
        <mxCell id="c3B1Q7E-CsR6DV4NtfHc-45" value="มี ?" style="rhombus;whiteSpace=wrap;html=1;" vertex="1" parent="1">
          <mxGeometry x="552" y="610" width="66" height="72" as="geometry" />
        </mxCell>
        <mxCell id="c3B1Q7E-CsR6DV4NtfHc-46" value="ใช่" style="edgeStyle=orthogonalEdgeStyle;rounded=0;orthogonalLoop=1;jettySize=auto;html=1;" edge="1" parent="1" source="c3B1Q7E-CsR6DV4NtfHc-49" target="c3B1Q7E-CsR6DV4NtfHc-55">
          <mxGeometry relative="1" as="geometry" />
        </mxCell>
        <mxCell id="c3B1Q7E-CsR6DV4NtfHc-47" value="" style="edgeStyle=orthogonalEdgeStyle;rounded=0;orthogonalLoop=1;jettySize=auto;html=1;" edge="1" parent="1" source="c3B1Q7E-CsR6DV4NtfHc-49" target="c3B1Q7E-CsR6DV4NtfHc-57">
          <mxGeometry relative="1" as="geometry" />
        </mxCell>
        <mxCell id="c3B1Q7E-CsR6DV4NtfHc-48" value="ไม่" style="edgeLabel;html=1;align=center;verticalAlign=middle;resizable=0;points=[];" vertex="1" connectable="0" parent="c3B1Q7E-CsR6DV4NtfHc-47">
          <mxGeometry x="-0.1127" relative="1" as="geometry">
            <mxPoint as="offset" />
          </mxGeometry>
        </mxCell>
        <mxCell id="c3B1Q7E-CsR6DV4NtfHc-49" value="Company &lt;br&gt;มีในระบบ&lt;br&gt;ไหม ?" style="rhombus;whiteSpace=wrap;html=1;" vertex="1" parent="1">
          <mxGeometry x="540" y="740" width="90" height="80" as="geometry" />
        </mxCell>
        <mxCell id="c3B1Q7E-CsR6DV4NtfHc-50" style="edgeStyle=orthogonalEdgeStyle;rounded=0;orthogonalLoop=1;jettySize=auto;html=1;entryX=1;entryY=0.5;entryDx=0;entryDy=0;" edge="1" parent="1" source="c3B1Q7E-CsR6DV4NtfHc-51" target="c3B1Q7E-CsR6DV4NtfHc-63">
          <mxGeometry relative="1" as="geometry">
            <mxPoint x="780" y="800" as="targetPoint" />
            <Array as="points">
              <mxPoint x="778" y="646" />
              <mxPoint x="778" y="1015" />
            </Array>
          </mxGeometry>
        </mxCell>
        <mxCell id="c3B1Q7E-CsR6DV4NtfHc-51" value="rerturn Error Code&amp;nbsp;002&lt;span style=&quot;font-size: medium; text-align: start;&quot;&gt;&lt;/span&gt;" style="rounded=1;whiteSpace=wrap;html=1;" vertex="1" parent="1">
          <mxGeometry x="680" y="626" width="77.5" height="40" as="geometry" />
        </mxCell>
        <mxCell id="c3B1Q7E-CsR6DV4NtfHc-52" value="" style="edgeStyle=orthogonalEdgeStyle;rounded=0;orthogonalLoop=1;jettySize=auto;html=1;" edge="1" parent="1" source="c3B1Q7E-CsR6DV4NtfHc-55" target="c3B1Q7E-CsR6DV4NtfHc-59">
          <mxGeometry relative="1" as="geometry" />
        </mxCell>
        <mxCell id="c3B1Q7E-CsR6DV4NtfHc-53" value="ไม่" style="edgeLabel;html=1;align=center;verticalAlign=middle;resizable=0;points=[];" vertex="1" connectable="0" parent="c3B1Q7E-CsR6DV4NtfHc-52">
          <mxGeometry x="-0.2152" y="2" relative="1" as="geometry">
            <mxPoint as="offset" />
          </mxGeometry>
        </mxCell>
        <mxCell id="c3B1Q7E-CsR6DV4NtfHc-54" style="edgeStyle=orthogonalEdgeStyle;rounded=0;orthogonalLoop=1;jettySize=auto;html=1;entryX=1;entryY=0.5;entryDx=0;entryDy=0;" edge="1" parent="1" source="c3B1Q7E-CsR6DV4NtfHc-55" target="c3B1Q7E-CsR6DV4NtfHc-61">
          <mxGeometry relative="1" as="geometry">
            <Array as="points">
              <mxPoint x="585" y="980" />
            </Array>
          </mxGeometry>
        </mxCell>
        <mxCell id="c3B1Q7E-CsR6DV4NtfHc-55" value="Company &lt;br&gt;Active ?" style="rhombus;whiteSpace=wrap;html=1;" vertex="1" parent="1">
          <mxGeometry x="540" y="860" width="90" height="80" as="geometry" />
        </mxCell>
        <mxCell id="c3B1Q7E-CsR6DV4NtfHc-56" style="edgeStyle=orthogonalEdgeStyle;rounded=0;orthogonalLoop=1;jettySize=auto;html=1;entryX=1;entryY=0;entryDx=0;entryDy=0;" edge="1" parent="1" source="c3B1Q7E-CsR6DV4NtfHc-57" target="c3B1Q7E-CsR6DV4NtfHc-63">
          <mxGeometry relative="1" as="geometry">
            <Array as="points">
              <mxPoint x="770" y="780" />
              <mxPoint x="770" y="997" />
            </Array>
          </mxGeometry>
        </mxCell>
        <mxCell id="c3B1Q7E-CsR6DV4NtfHc-57" value="rerturn Error Code&amp;nbsp;007&lt;span style=&quot;font-size: medium; text-align: start;&quot;&gt;&lt;/span&gt;" style="rounded=1;whiteSpace=wrap;html=1;" vertex="1" parent="1">
          <mxGeometry x="680" y="760" width="77.5" height="40" as="geometry" />
        </mxCell>
        <mxCell id="c3B1Q7E-CsR6DV4NtfHc-58" style="edgeStyle=orthogonalEdgeStyle;rounded=0;orthogonalLoop=1;jettySize=auto;html=1;" edge="1" parent="1" source="c3B1Q7E-CsR6DV4NtfHc-59" target="c3B1Q7E-CsR6DV4NtfHc-63">
          <mxGeometry relative="1" as="geometry" />
        </mxCell>
        <mxCell id="c3B1Q7E-CsR6DV4NtfHc-59" value="rerturn Error Code&amp;nbsp;051&lt;span style=&quot;font-size: medium; text-align: start;&quot;&gt;&lt;/span&gt;" style="rounded=1;whiteSpace=wrap;html=1;" vertex="1" parent="1">
          <mxGeometry x="680" y="880" width="77.5" height="40" as="geometry" />
        </mxCell>
        <mxCell id="c3B1Q7E-CsR6DV4NtfHc-60" value="" style="edgeStyle=orthogonalEdgeStyle;rounded=0;orthogonalLoop=1;jettySize=auto;html=1;" edge="1" parent="1" source="c3B1Q7E-CsR6DV4NtfHc-61" target="c3B1Q7E-CsR6DV4NtfHc-66">
          <mxGeometry relative="1" as="geometry" />
        </mxCell>
        <mxCell id="c3B1Q7E-CsR6DV4NtfHc-61" value="ดึงข้อมูลหัวข้อ ข้อมูลของการประชุมผู้ถือหุ้น" style="rounded=1;whiteSpace=wrap;html=1;" vertex="1" parent="1">
          <mxGeometry x="387" y="950" width="120" height="40" as="geometry" />
        </mxCell>
        <mxCell id="c3B1Q7E-CsR6DV4NtfHc-62" style="edgeStyle=orthogonalEdgeStyle;rounded=0;orthogonalLoop=1;jettySize=auto;html=1;entryX=1;entryY=1;entryDx=0;entryDy=0;" edge="1" parent="1" source="c3B1Q7E-CsR6DV4NtfHc-63" target="c3B1Q7E-CsR6DV4NtfHc-64">
          <mxGeometry relative="1" as="geometry">
            <Array as="points">
              <mxPoint x="719" y="1140" />
              <mxPoint x="450" y="1140" />
            </Array>
          </mxGeometry>
        </mxCell>
        <mxCell id="c3B1Q7E-CsR6DV4NtfHc-63" value="2" style="ellipse;whiteSpace=wrap;html=1;aspect=fixed;" vertex="1" parent="1">
          <mxGeometry x="693.75" y="990" width="50" height="50" as="geometry" />
        </mxCell>
        <mxCell id="c3B1Q7E-CsR6DV4NtfHc-64" value="สิ้นสุด" style="ellipse;whiteSpace=wrap;html=1;" vertex="1" parent="1">
          <mxGeometry x="362" y="1090" width="103" height="60" as="geometry" />
        </mxCell>
        <mxCell id="c3B1Q7E-CsR6DV4NtfHc-65" style="edgeStyle=orthogonalEdgeStyle;rounded=0;orthogonalLoop=1;jettySize=auto;html=1;entryX=1;entryY=0.5;entryDx=0;entryDy=0;" edge="1" parent="1" source="c3B1Q7E-CsR6DV4NtfHc-66" target="c3B1Q7E-CsR6DV4NtfHc-64">
          <mxGeometry relative="1" as="geometry" />
        </mxCell>
        <mxCell id="c3B1Q7E-CsR6DV4NtfHc-66" value="ส่งกลับข้อมูล หัวข้อ ข้อมูลของการประชุมผู้ถือหุ้น" style="rounded=1;whiteSpace=wrap;html=1;" vertex="1" parent="1">
          <mxGeometry x="387" y="1020" width="120" height="40" as="geometry" />
        </mxCell>
      </root>
    </mxGraphModel>
  </diagram>
  <diagram id="ZZPz2YXcFF5mq4bLV4xp" name="Page-2">
    <mxGraphModel dx="1434" dy="707" grid="1" gridSize="10" guides="1" tooltips="1" connect="1" arrows="1" fold="1" page="1" pageScale="1" pageWidth="850" pageHeight="1100" math="0" shadow="0">
      <root>
        <mxCell id="0" />
        <mxCell id="1" parent="0" />
        <mxCell id="1kyaGEj-nAoiZGzW0upJ-1" value="เริ่ม" style="ellipse;whiteSpace=wrap;html=1;" vertex="1" parent="1">
          <mxGeometry x="75" y="20" width="80" height="40" as="geometry" />
        </mxCell>
        <mxCell id="1kyaGEj-nAoiZGzW0upJ-2" value="ตรวจสอบสิทธิ์การใช้งาน" style="rounded=1;whiteSpace=wrap;html=1;" vertex="1" parent="1">
          <mxGeometry x="45" y="100" width="140" height="30" as="geometry" />
        </mxCell>
        <mxCell id="1kyaGEj-nAoiZGzW0upJ-3" value="" style="edgeStyle=orthogonalEdgeStyle;rounded=0;orthogonalLoop=1;jettySize=auto;html=1;" edge="1" parent="1" source="1kyaGEj-nAoiZGzW0upJ-1" target="1kyaGEj-nAoiZGzW0upJ-2">
          <mxGeometry relative="1" as="geometry" />
        </mxCell>
        <mxCell id="1kyaGEj-nAoiZGzW0upJ-4" value="มี ?" style="rhombus;whiteSpace=wrap;html=1;" vertex="1" parent="1">
          <mxGeometry x="85" y="160" width="60" height="60" as="geometry" />
        </mxCell>
        <mxCell id="1kyaGEj-nAoiZGzW0upJ-5" value="" style="edgeStyle=orthogonalEdgeStyle;rounded=0;orthogonalLoop=1;jettySize=auto;html=1;" edge="1" parent="1" source="1kyaGEj-nAoiZGzW0upJ-2" target="1kyaGEj-nAoiZGzW0upJ-4">
          <mxGeometry relative="1" as="geometry" />
        </mxCell>
        <mxCell id="1kyaGEj-nAoiZGzW0upJ-6" style="edgeStyle=orthogonalEdgeStyle;rounded=0;orthogonalLoop=1;jettySize=auto;html=1;entryX=-0.022;entryY=0.676;entryDx=0;entryDy=0;entryPerimeter=0;" edge="1" parent="1" source="1kyaGEj-nAoiZGzW0upJ-4" target="1kyaGEj-nAoiZGzW0upJ-19">
          <mxGeometry relative="1" as="geometry">
            <Array as="points">
              <mxPoint x="115" y="624" />
            </Array>
            <mxPoint x="270" y="730" as="targetPoint" />
          </mxGeometry>
        </mxCell>
        <mxCell id="1kyaGEj-nAoiZGzW0upJ-7" value="ไม่" style="edgeLabel;html=1;align=center;verticalAlign=middle;resizable=0;points=[];" vertex="1" connectable="0" parent="1kyaGEj-nAoiZGzW0upJ-6">
          <mxGeometry x="-0.8925" y="1" relative="1" as="geometry">
            <mxPoint as="offset" />
          </mxGeometry>
        </mxCell>
        <mxCell id="1kyaGEj-nAoiZGzW0upJ-8" value="ตรวจสอบ Account &lt;br&gt;สถานะการใช้งาน" style="rounded=1;whiteSpace=wrap;html=1;" vertex="1" parent="1">
          <mxGeometry x="261.35" y="169" width="170" height="40" as="geometry" />
        </mxCell>
        <mxCell id="1kyaGEj-nAoiZGzW0upJ-9" value="" style="edgeStyle=orthogonalEdgeStyle;rounded=0;orthogonalLoop=1;jettySize=auto;html=1;" edge="1" parent="1" source="1kyaGEj-nAoiZGzW0upJ-4" target="1kyaGEj-nAoiZGzW0upJ-8">
          <mxGeometry relative="1" as="geometry">
            <Array as="points">
              <mxPoint x="225" y="190" />
              <mxPoint x="225" y="190" />
            </Array>
          </mxGeometry>
        </mxCell>
        <mxCell id="1kyaGEj-nAoiZGzW0upJ-10" value="ใช่" style="edgeLabel;html=1;align=center;verticalAlign=middle;resizable=0;points=[];" vertex="1" connectable="0" parent="1kyaGEj-nAoiZGzW0upJ-9">
          <mxGeometry x="-0.7797" y="-1" relative="1" as="geometry">
            <mxPoint as="offset" />
          </mxGeometry>
        </mxCell>
        <mxCell id="1kyaGEj-nAoiZGzW0upJ-11" value="มีใน&lt;br&gt;ระบบ &lt;br&gt;?" style="rhombus;whiteSpace=wrap;html=1;" vertex="1" parent="1">
          <mxGeometry x="308.85" y="248" width="75" height="70" as="geometry" />
        </mxCell>
        <mxCell id="1kyaGEj-nAoiZGzW0upJ-12" value="" style="edgeStyle=orthogonalEdgeStyle;rounded=0;orthogonalLoop=1;jettySize=auto;html=1;" edge="1" parent="1" source="1kyaGEj-nAoiZGzW0upJ-8" target="1kyaGEj-nAoiZGzW0upJ-11">
          <mxGeometry relative="1" as="geometry" />
        </mxCell>
        <mxCell id="1kyaGEj-nAoiZGzW0upJ-13" value="status&lt;br style=&quot;border-color: var(--border-color);&quot;&gt;= 1 ?" style="rhombus;whiteSpace=wrap;html=1;" vertex="1" parent="1">
          <mxGeometry x="316.35" y="368" width="60" height="60" as="geometry" />
        </mxCell>
        <mxCell id="1kyaGEj-nAoiZGzW0upJ-14" value="" style="edgeStyle=orthogonalEdgeStyle;rounded=0;orthogonalLoop=1;jettySize=auto;html=1;" edge="1" parent="1" source="1kyaGEj-nAoiZGzW0upJ-11" target="1kyaGEj-nAoiZGzW0upJ-13">
          <mxGeometry relative="1" as="geometry" />
        </mxCell>
        <mxCell id="1kyaGEj-nAoiZGzW0upJ-15" value="ใช่" style="edgeLabel;html=1;align=center;verticalAlign=middle;resizable=0;points=[];" vertex="1" connectable="0" parent="1kyaGEj-nAoiZGzW0upJ-14">
          <mxGeometry x="-0.3254" y="2" relative="1" as="geometry">
            <mxPoint x="-2" as="offset" />
          </mxGeometry>
        </mxCell>
        <mxCell id="1kyaGEj-nAoiZGzW0upJ-16" value="Locked&lt;br style=&quot;border-color: var(--border-color);&quot;&gt;= 1 ?&amp;nbsp;" style="rhombus;whiteSpace=wrap;html=1;" vertex="1" parent="1">
          <mxGeometry x="316.35" y="498" width="60" height="60" as="geometry" />
        </mxCell>
        <mxCell id="1kyaGEj-nAoiZGzW0upJ-17" value="" style="edgeStyle=orthogonalEdgeStyle;rounded=0;orthogonalLoop=1;jettySize=auto;html=1;" edge="1" parent="1" source="1kyaGEj-nAoiZGzW0upJ-13" target="1kyaGEj-nAoiZGzW0upJ-16">
          <mxGeometry relative="1" as="geometry" />
        </mxCell>
        <mxCell id="1kyaGEj-nAoiZGzW0upJ-18" value="ไม่" style="edgeLabel;html=1;align=center;verticalAlign=middle;resizable=0;points=[];" vertex="1" connectable="0" parent="1kyaGEj-nAoiZGzW0upJ-17">
          <mxGeometry x="-0.3745" relative="1" as="geometry">
            <mxPoint as="offset" />
          </mxGeometry>
        </mxCell>
        <mxCell id="1kyaGEj-nAoiZGzW0upJ-19" value="1" style="ellipse;whiteSpace=wrap;html=1;aspect=fixed;" vertex="1" parent="1">
          <mxGeometry x="218.75" y="590" width="50" height="50" as="geometry" />
        </mxCell>
        <mxCell id="1kyaGEj-nAoiZGzW0upJ-20" style="edgeStyle=orthogonalEdgeStyle;rounded=0;orthogonalLoop=1;jettySize=auto;html=1;" edge="1" parent="1" source="1kyaGEj-nAoiZGzW0upJ-21" target="1kyaGEj-nAoiZGzW0upJ-19">
          <mxGeometry relative="1" as="geometry">
            <Array as="points">
              <mxPoint x="145" y="283" />
              <mxPoint x="145" y="610" />
            </Array>
          </mxGeometry>
        </mxCell>
        <mxCell id="1kyaGEj-nAoiZGzW0upJ-21" value="rerturn Error Code&amp;nbsp;001&lt;span style=&quot;font-size: medium; text-align: start;&quot;&gt;&lt;/span&gt;" style="rounded=1;whiteSpace=wrap;html=1;" vertex="1" parent="1">
          <mxGeometry x="155" y="263" width="77.5" height="40" as="geometry" />
        </mxCell>
        <mxCell id="1kyaGEj-nAoiZGzW0upJ-22" style="edgeStyle=orthogonalEdgeStyle;rounded=0;orthogonalLoop=1;jettySize=auto;html=1;" edge="1" parent="1" source="1kyaGEj-nAoiZGzW0upJ-11" target="1kyaGEj-nAoiZGzW0upJ-21">
          <mxGeometry relative="1" as="geometry">
            <mxPoint x="245.10000000000002" y="388" as="targetPoint" />
          </mxGeometry>
        </mxCell>
        <mxCell id="1kyaGEj-nAoiZGzW0upJ-23" value="ไม่" style="edgeLabel;html=1;align=center;verticalAlign=middle;resizable=0;points=[];" vertex="1" connectable="0" parent="1kyaGEj-nAoiZGzW0upJ-22">
          <mxGeometry x="-0.6573" y="2" relative="1" as="geometry">
            <mxPoint as="offset" />
          </mxGeometry>
        </mxCell>
        <mxCell id="1kyaGEj-nAoiZGzW0upJ-24" style="edgeStyle=orthogonalEdgeStyle;rounded=0;orthogonalLoop=1;jettySize=auto;html=1;entryX=0.5;entryY=0;entryDx=0;entryDy=0;" edge="1" parent="1" source="1kyaGEj-nAoiZGzW0upJ-25" target="1kyaGEj-nAoiZGzW0upJ-19">
          <mxGeometry relative="1" as="geometry" />
        </mxCell>
        <mxCell id="1kyaGEj-nAoiZGzW0upJ-25" value="rerturn Error Code&amp;nbsp;011&lt;span style=&quot;font-size: medium; text-align: start;&quot;&gt;&lt;/span&gt;" style="rounded=1;whiteSpace=wrap;html=1;" vertex="1" parent="1">
          <mxGeometry x="205" y="508" width="77.5" height="40" as="geometry" />
        </mxCell>
        <mxCell id="1kyaGEj-nAoiZGzW0upJ-26" value="" style="edgeStyle=orthogonalEdgeStyle;rounded=0;orthogonalLoop=1;jettySize=auto;html=1;" edge="1" parent="1" source="1kyaGEj-nAoiZGzW0upJ-16" target="1kyaGEj-nAoiZGzW0upJ-25">
          <mxGeometry relative="1" as="geometry" />
        </mxCell>
        <mxCell id="1kyaGEj-nAoiZGzW0upJ-27" value="ใช่" style="edgeLabel;html=1;align=center;verticalAlign=middle;resizable=0;points=[];" vertex="1" connectable="0" parent="1kyaGEj-nAoiZGzW0upJ-26">
          <mxGeometry x="-0.4608" y="1" relative="1" as="geometry">
            <mxPoint as="offset" />
          </mxGeometry>
        </mxCell>
        <mxCell id="1kyaGEj-nAoiZGzW0upJ-28" style="edgeStyle=orthogonalEdgeStyle;rounded=0;orthogonalLoop=1;jettySize=auto;html=1;" edge="1" parent="1" source="1kyaGEj-nAoiZGzW0upJ-29" target="1kyaGEj-nAoiZGzW0upJ-19">
          <mxGeometry relative="1" as="geometry">
            <mxPoint x="245" y="590" as="targetPoint" />
            <Array as="points">
              <mxPoint x="185" y="398" />
              <mxPoint x="185" y="600" />
            </Array>
          </mxGeometry>
        </mxCell>
        <mxCell id="1kyaGEj-nAoiZGzW0upJ-29" value="rerturn Error Code&amp;nbsp;004&lt;span style=&quot;font-size: medium; text-align: start;&quot;&gt;&lt;/span&gt;" style="rounded=1;whiteSpace=wrap;html=1;" vertex="1" parent="1">
          <mxGeometry x="205" y="378" width="77.5" height="40" as="geometry" />
        </mxCell>
        <mxCell id="1kyaGEj-nAoiZGzW0upJ-30" value="" style="edgeStyle=orthogonalEdgeStyle;rounded=0;orthogonalLoop=1;jettySize=auto;html=1;" edge="1" parent="1" source="1kyaGEj-nAoiZGzW0upJ-13" target="1kyaGEj-nAoiZGzW0upJ-29">
          <mxGeometry relative="1" as="geometry" />
        </mxCell>
        <mxCell id="1kyaGEj-nAoiZGzW0upJ-31" value="ใช่" style="edgeLabel;html=1;align=center;verticalAlign=middle;resizable=0;points=[];" vertex="1" connectable="0" parent="1kyaGEj-nAoiZGzW0upJ-30">
          <mxGeometry x="-0.4608" y="2" relative="1" as="geometry">
            <mxPoint as="offset" />
          </mxGeometry>
        </mxCell>
        <mxCell id="1kyaGEj-nAoiZGzW0upJ-32" value="" style="edgeStyle=orthogonalEdgeStyle;rounded=0;orthogonalLoop=1;jettySize=auto;html=1;entryX=0.1;entryY=0.5;entryDx=0;entryDy=0;entryPerimeter=0;" edge="1" parent="1" source="1kyaGEj-nAoiZGzW0upJ-16" target="1kyaGEj-nAoiZGzW0upJ-35">
          <mxGeometry relative="1" as="geometry">
            <mxPoint x="419" y="528" as="targetPoint" />
          </mxGeometry>
        </mxCell>
        <mxCell id="1kyaGEj-nAoiZGzW0upJ-33" value="" style="edgeStyle=orthogonalEdgeStyle;rounded=0;orthogonalLoop=1;jettySize=auto;html=1;" edge="1" parent="1" source="1kyaGEj-nAoiZGzW0upJ-35">
          <mxGeometry relative="1" as="geometry">
            <mxPoint x="535" y="528" as="targetPoint" />
          </mxGeometry>
        </mxCell>
        <mxCell id="1kyaGEj-nAoiZGzW0upJ-34" value="ไม่" style="edgeLabel;html=1;align=center;verticalAlign=middle;resizable=0;points=[];" vertex="1" connectable="0" parent="1kyaGEj-nAoiZGzW0upJ-33">
          <mxGeometry x="-0.3115" y="3" relative="1" as="geometry">
            <mxPoint as="offset" />
          </mxGeometry>
        </mxCell>
        <mxCell id="1kyaGEj-nAoiZGzW0upJ-35" value="Super&lt;br&gt;Admin ?" style="rhombus;whiteSpace=wrap;html=1;" vertex="1" parent="1">
          <mxGeometry x="419" y="492" width="66" height="72" as="geometry" />
        </mxCell>
        <mxCell id="1kyaGEj-nAoiZGzW0upJ-36" value="ตรวจสอบสิทธิ์การใช้งาน Company นี้ไหม&lt;span style=&quot;font-size: medium; text-align: start;&quot;&gt;&lt;/span&gt;" style="rounded=1;whiteSpace=wrap;html=1;" vertex="1" parent="1">
          <mxGeometry x="535" y="508" width="110" height="42" as="geometry" />
        </mxCell>
        <mxCell id="1kyaGEj-nAoiZGzW0upJ-37" value="มี ?" style="rhombus;whiteSpace=wrap;html=1;" vertex="1" parent="1">
          <mxGeometry x="557" y="590" width="66" height="72" as="geometry" />
        </mxCell>
        <mxCell id="1kyaGEj-nAoiZGzW0upJ-38" value="" style="edgeStyle=orthogonalEdgeStyle;rounded=0;orthogonalLoop=1;jettySize=auto;html=1;" edge="1" parent="1" source="1kyaGEj-nAoiZGzW0upJ-36" target="1kyaGEj-nAoiZGzW0upJ-37">
          <mxGeometry relative="1" as="geometry" />
        </mxCell>
        <mxCell id="1kyaGEj-nAoiZGzW0upJ-39" value="Company &lt;br&gt;มีในระบบ&lt;br&gt;ไหม ?" style="rhombus;whiteSpace=wrap;html=1;" vertex="1" parent="1">
          <mxGeometry x="545" y="720" width="90" height="80" as="geometry" />
        </mxCell>
        <mxCell id="1kyaGEj-nAoiZGzW0upJ-40" value="" style="edgeStyle=orthogonalEdgeStyle;rounded=0;orthogonalLoop=1;jettySize=auto;html=1;" edge="1" parent="1" source="1kyaGEj-nAoiZGzW0upJ-37" target="1kyaGEj-nAoiZGzW0upJ-39">
          <mxGeometry relative="1" as="geometry" />
        </mxCell>
        <mxCell id="1kyaGEj-nAoiZGzW0upJ-41" value="ใช่" style="edgeLabel;html=1;align=center;verticalAlign=middle;resizable=0;points=[];" vertex="1" connectable="0" parent="1kyaGEj-nAoiZGzW0upJ-40">
          <mxGeometry x="-0.2859" relative="1" as="geometry">
            <mxPoint as="offset" />
          </mxGeometry>
        </mxCell>
        <mxCell id="1kyaGEj-nAoiZGzW0upJ-42" value="rerturn Error Code&amp;nbsp;002&lt;span style=&quot;font-size: medium; text-align: start;&quot;&gt;&lt;/span&gt;" style="rounded=1;whiteSpace=wrap;html=1;" vertex="1" parent="1">
          <mxGeometry x="685" y="606" width="77.5" height="40" as="geometry" />
        </mxCell>
        <mxCell id="1kyaGEj-nAoiZGzW0upJ-43" style="edgeStyle=orthogonalEdgeStyle;rounded=0;orthogonalLoop=1;jettySize=auto;html=1;" edge="1" parent="1" source="1kyaGEj-nAoiZGzW0upJ-37" target="1kyaGEj-nAoiZGzW0upJ-42">
          <mxGeometry relative="1" as="geometry">
            <mxPoint x="685" y="625.9999999999998" as="targetPoint" />
          </mxGeometry>
        </mxCell>
        <mxCell id="1kyaGEj-nAoiZGzW0upJ-44" value="ไม่" style="edgeLabel;html=1;align=center;verticalAlign=middle;resizable=0;points=[];" vertex="1" connectable="0" parent="1kyaGEj-nAoiZGzW0upJ-43">
          <mxGeometry x="-0.0865" y="2" relative="1" as="geometry">
            <mxPoint as="offset" />
          </mxGeometry>
        </mxCell>
        <mxCell id="1kyaGEj-nAoiZGzW0upJ-45" value="Company &lt;br&gt;Active ?" style="rhombus;whiteSpace=wrap;html=1;" vertex="1" parent="1">
          <mxGeometry x="545" y="840" width="90" height="80" as="geometry" />
        </mxCell>
        <mxCell id="1kyaGEj-nAoiZGzW0upJ-46" value="ใช่" style="edgeStyle=orthogonalEdgeStyle;rounded=0;orthogonalLoop=1;jettySize=auto;html=1;" edge="1" parent="1" source="1kyaGEj-nAoiZGzW0upJ-39" target="1kyaGEj-nAoiZGzW0upJ-45">
          <mxGeometry relative="1" as="geometry" />
        </mxCell>
        <mxCell id="1kyaGEj-nAoiZGzW0upJ-47" value="rerturn Error Code&amp;nbsp;007&lt;span style=&quot;font-size: medium; text-align: start;&quot;&gt;&lt;/span&gt;" style="rounded=1;whiteSpace=wrap;html=1;" vertex="1" parent="1">
          <mxGeometry x="685" y="740" width="77.5" height="40" as="geometry" />
        </mxCell>
        <mxCell id="1kyaGEj-nAoiZGzW0upJ-48" value="" style="edgeStyle=orthogonalEdgeStyle;rounded=0;orthogonalLoop=1;jettySize=auto;html=1;" edge="1" parent="1" source="1kyaGEj-nAoiZGzW0upJ-39" target="1kyaGEj-nAoiZGzW0upJ-47">
          <mxGeometry relative="1" as="geometry" />
        </mxCell>
        <mxCell id="1kyaGEj-nAoiZGzW0upJ-49" value="ไม่" style="edgeLabel;html=1;align=center;verticalAlign=middle;resizable=0;points=[];" vertex="1" connectable="0" parent="1kyaGEj-nAoiZGzW0upJ-48">
          <mxGeometry x="-0.1127" relative="1" as="geometry">
            <mxPoint as="offset" />
          </mxGeometry>
        </mxCell>
        <mxCell id="1kyaGEj-nAoiZGzW0upJ-50" value="rerturn Error Code&amp;nbsp;051&lt;span style=&quot;font-size: medium; text-align: start;&quot;&gt;&lt;/span&gt;" style="rounded=1;whiteSpace=wrap;html=1;" vertex="1" parent="1">
          <mxGeometry x="685" y="860" width="77.5" height="40" as="geometry" />
        </mxCell>
        <mxCell id="1kyaGEj-nAoiZGzW0upJ-51" value="" style="edgeStyle=orthogonalEdgeStyle;rounded=0;orthogonalLoop=1;jettySize=auto;html=1;" edge="1" parent="1" source="1kyaGEj-nAoiZGzW0upJ-45" target="1kyaGEj-nAoiZGzW0upJ-50">
          <mxGeometry relative="1" as="geometry" />
        </mxCell>
        <mxCell id="1kyaGEj-nAoiZGzW0upJ-52" value="ไม่" style="edgeLabel;html=1;align=center;verticalAlign=middle;resizable=0;points=[];" vertex="1" connectable="0" parent="1kyaGEj-nAoiZGzW0upJ-51">
          <mxGeometry x="-0.2152" y="2" relative="1" as="geometry">
            <mxPoint as="offset" />
          </mxGeometry>
        </mxCell>
        <mxCell id="1kyaGEj-nAoiZGzW0upJ-53" value="" style="edgeStyle=orthogonalEdgeStyle;rounded=0;orthogonalLoop=1;jettySize=auto;html=1;" edge="1" parent="1" source="1kyaGEj-nAoiZGzW0upJ-54" target="1kyaGEj-nAoiZGzW0upJ-70">
          <mxGeometry relative="1" as="geometry" />
        </mxCell>
        <mxCell id="1kyaGEj-nAoiZGzW0upJ-54" value="ดึงข้อมูลหัวข้อ ข้อมูลของการประชุมผู้ถือหุ้น" style="rounded=1;whiteSpace=wrap;html=1;" vertex="1" parent="1">
          <mxGeometry x="392" y="860" width="120" height="40" as="geometry" />
        </mxCell>
        <mxCell id="1kyaGEj-nAoiZGzW0upJ-55" style="edgeStyle=orthogonalEdgeStyle;rounded=0;orthogonalLoop=1;jettySize=auto;html=1;entryX=0.5;entryY=0;entryDx=0;entryDy=0;" edge="1" parent="1" source="1kyaGEj-nAoiZGzW0upJ-35" target="1kyaGEj-nAoiZGzW0upJ-54">
          <mxGeometry relative="1" as="geometry">
            <mxPoint x="452" y="920" as="targetPoint" />
          </mxGeometry>
        </mxCell>
        <mxCell id="1kyaGEj-nAoiZGzW0upJ-56" value="ใช่" style="edgeLabel;html=1;align=center;verticalAlign=middle;resizable=0;points=[];" vertex="1" connectable="0" parent="1kyaGEj-nAoiZGzW0upJ-55">
          <mxGeometry x="-0.3215" y="2" relative="1" as="geometry">
            <mxPoint as="offset" />
          </mxGeometry>
        </mxCell>
        <mxCell id="1kyaGEj-nAoiZGzW0upJ-57" style="edgeStyle=orthogonalEdgeStyle;rounded=0;orthogonalLoop=1;jettySize=auto;html=1;entryX=1;entryY=0.5;entryDx=0;entryDy=0;" edge="1" parent="1" source="1kyaGEj-nAoiZGzW0upJ-45" target="1kyaGEj-nAoiZGzW0upJ-54">
          <mxGeometry relative="1" as="geometry">
            <Array as="points">
              <mxPoint x="512" y="880" />
            </Array>
          </mxGeometry>
        </mxCell>
        <mxCell id="1kyaGEj-nAoiZGzW0upJ-58" value="2" style="ellipse;whiteSpace=wrap;html=1;aspect=fixed;" vertex="1" parent="1">
          <mxGeometry x="698.75" y="970" width="50" height="50" as="geometry" />
        </mxCell>
        <mxCell id="1kyaGEj-nAoiZGzW0upJ-59" style="edgeStyle=orthogonalEdgeStyle;rounded=0;orthogonalLoop=1;jettySize=auto;html=1;entryX=1;entryY=0.5;entryDx=0;entryDy=0;" edge="1" parent="1" source="1kyaGEj-nAoiZGzW0upJ-42" target="1kyaGEj-nAoiZGzW0upJ-58">
          <mxGeometry relative="1" as="geometry">
            <mxPoint x="785" y="780" as="targetPoint" />
            <Array as="points">
              <mxPoint x="783" y="626" />
              <mxPoint x="783" y="995" />
            </Array>
          </mxGeometry>
        </mxCell>
        <mxCell id="1kyaGEj-nAoiZGzW0upJ-60" style="edgeStyle=orthogonalEdgeStyle;rounded=0;orthogonalLoop=1;jettySize=auto;html=1;entryX=1;entryY=0;entryDx=0;entryDy=0;" edge="1" parent="1" source="1kyaGEj-nAoiZGzW0upJ-47" target="1kyaGEj-nAoiZGzW0upJ-58">
          <mxGeometry relative="1" as="geometry">
            <Array as="points">
              <mxPoint x="775" y="760" />
              <mxPoint x="775" y="977" />
            </Array>
          </mxGeometry>
        </mxCell>
        <mxCell id="1kyaGEj-nAoiZGzW0upJ-61" style="edgeStyle=orthogonalEdgeStyle;rounded=0;orthogonalLoop=1;jettySize=auto;html=1;" edge="1" parent="1" source="1kyaGEj-nAoiZGzW0upJ-50" target="1kyaGEj-nAoiZGzW0upJ-58">
          <mxGeometry relative="1" as="geometry" />
        </mxCell>
        <mxCell id="1kyaGEj-nAoiZGzW0upJ-62" value="สิ้นสุด" style="ellipse;whiteSpace=wrap;html=1;" vertex="1" parent="1">
          <mxGeometry x="367" y="1070" width="103" height="60" as="geometry" />
        </mxCell>
        <mxCell id="1kyaGEj-nAoiZGzW0upJ-63" style="edgeStyle=orthogonalEdgeStyle;rounded=0;orthogonalLoop=1;jettySize=auto;html=1;entryX=0;entryY=0.5;entryDx=0;entryDy=0;" edge="1" parent="1" source="1kyaGEj-nAoiZGzW0upJ-19" target="1kyaGEj-nAoiZGzW0upJ-62">
          <mxGeometry relative="1" as="geometry">
            <Array as="points">
              <mxPoint x="244" y="1100" />
            </Array>
          </mxGeometry>
        </mxCell>
        <mxCell id="1kyaGEj-nAoiZGzW0upJ-64" style="edgeStyle=orthogonalEdgeStyle;rounded=0;orthogonalLoop=1;jettySize=auto;html=1;entryX=1;entryY=1;entryDx=0;entryDy=0;" edge="1" parent="1" source="1kyaGEj-nAoiZGzW0upJ-58" target="1kyaGEj-nAoiZGzW0upJ-62">
          <mxGeometry relative="1" as="geometry">
            <Array as="points">
              <mxPoint x="724" y="1120" />
              <mxPoint x="455" y="1120" />
            </Array>
          </mxGeometry>
        </mxCell>
        <mxCell id="1kyaGEj-nAoiZGzW0upJ-65" style="edgeStyle=orthogonalEdgeStyle;rounded=0;orthogonalLoop=1;jettySize=auto;html=1;entryX=0;entryY=0;entryDx=0;entryDy=0;" edge="1" parent="1" source="1kyaGEj-nAoiZGzW0upJ-66" target="1kyaGEj-nAoiZGzW0upJ-62">
          <mxGeometry relative="1" as="geometry">
            <Array as="points">
              <mxPoint x="340" y="1080" />
              <mxPoint x="380" y="1080" />
              <mxPoint x="380" y="1079" />
            </Array>
          </mxGeometry>
        </mxCell>
        <mxCell id="1kyaGEj-nAoiZGzW0upJ-66" value="ส่งกลับข้อมูลหัวข้อ ข้อมูลของการประชุมผู้ถือหุ้น" style="rounded=1;whiteSpace=wrap;html=1;" vertex="1" parent="1">
          <mxGeometry x="280" y="930" width="120" height="40" as="geometry" />
        </mxCell>
        <mxCell id="1kyaGEj-nAoiZGzW0upJ-67" value="" style="edgeStyle=orthogonalEdgeStyle;rounded=0;orthogonalLoop=1;jettySize=auto;html=1;" edge="1" parent="1" source="1kyaGEj-nAoiZGzW0upJ-70" target="1kyaGEj-nAoiZGzW0upJ-66">
          <mxGeometry relative="1" as="geometry" />
        </mxCell>
        <mxCell id="1kyaGEj-nAoiZGzW0upJ-68" value="ใช่" style="edgeLabel;html=1;align=center;verticalAlign=middle;resizable=0;points=[];" vertex="1" connectable="0" parent="1kyaGEj-nAoiZGzW0upJ-67">
          <mxGeometry x="-0.3989" y="-1" relative="1" as="geometry">
            <mxPoint y="2" as="offset" />
          </mxGeometry>
        </mxCell>
        <mxCell id="1kyaGEj-nAoiZGzW0upJ-69" style="edgeStyle=orthogonalEdgeStyle;rounded=0;orthogonalLoop=1;jettySize=auto;html=1;" edge="1" parent="1" source="1kyaGEj-nAoiZGzW0upJ-70" target="1kyaGEj-nAoiZGzW0upJ-72">
          <mxGeometry relative="1" as="geometry" />
        </mxCell>
        <mxCell id="8nq2tlcJgkyUDwPJbYly-1" value="ไม่" style="edgeLabel;html=1;align=center;verticalAlign=middle;resizable=0;points=[];" vertex="1" connectable="0" parent="1kyaGEj-nAoiZGzW0upJ-69">
          <mxGeometry x="-0.4105" y="-1" relative="1" as="geometry">
            <mxPoint as="offset" />
          </mxGeometry>
        </mxCell>
        <mxCell id="1kyaGEj-nAoiZGzW0upJ-70" value="มี?" style="rhombus;whiteSpace=wrap;html=1;" vertex="1" parent="1">
          <mxGeometry x="427.75" y="930" width="48.5" height="40" as="geometry" />
        </mxCell>
        <mxCell id="1kyaGEj-nAoiZGzW0upJ-71" style="edgeStyle=orthogonalEdgeStyle;rounded=0;orthogonalLoop=1;jettySize=auto;html=1;" edge="1" parent="1" source="1kyaGEj-nAoiZGzW0upJ-72" target="1kyaGEj-nAoiZGzW0upJ-62">
          <mxGeometry relative="1" as="geometry" />
        </mxCell>
        <mxCell id="1kyaGEj-nAoiZGzW0upJ-72" value="return Error code 096" style="rounded=1;whiteSpace=wrap;html=1;" vertex="1" parent="1">
          <mxGeometry x="477" y="1000" width="80" height="50" as="geometry" />
        </mxCell>
      </root>
    </mxGraphModel>
  </diagram>
  <diagram id="124ow79p_NqZ8kny7-1-" name="Page-3">
    <mxGraphModel dx="1195" dy="637" grid="1" gridSize="10" guides="1" tooltips="1" connect="1" arrows="1" fold="1" page="1" pageScale="1" pageWidth="850" pageHeight="1100" math="0" shadow="0">
      <root>
        <mxCell id="0" />
        <mxCell id="1" parent="0" />
        <mxCell id="XRapJzvQ2GW_e7HTbM0V-1" value="เริ่ม" style="ellipse;whiteSpace=wrap;html=1;" vertex="1" parent="1">
          <mxGeometry x="115" y="60" width="80" height="40" as="geometry" />
        </mxCell>
        <mxCell id="XRapJzvQ2GW_e7HTbM0V-2" value="ตรวจสอบสิทธิ์การใช้งาน" style="rounded=1;whiteSpace=wrap;html=1;" vertex="1" parent="1">
          <mxGeometry x="85" y="140" width="140" height="30" as="geometry" />
        </mxCell>
        <mxCell id="XRapJzvQ2GW_e7HTbM0V-3" value="" style="edgeStyle=orthogonalEdgeStyle;rounded=0;orthogonalLoop=1;jettySize=auto;html=1;" edge="1" parent="1" source="XRapJzvQ2GW_e7HTbM0V-1" target="XRapJzvQ2GW_e7HTbM0V-2">
          <mxGeometry relative="1" as="geometry" />
        </mxCell>
        <mxCell id="XRapJzvQ2GW_e7HTbM0V-4" value="มี ?" style="rhombus;whiteSpace=wrap;html=1;" vertex="1" parent="1">
          <mxGeometry x="125" y="200" width="60" height="60" as="geometry" />
        </mxCell>
        <mxCell id="XRapJzvQ2GW_e7HTbM0V-5" value="" style="edgeStyle=orthogonalEdgeStyle;rounded=0;orthogonalLoop=1;jettySize=auto;html=1;" edge="1" parent="1" source="XRapJzvQ2GW_e7HTbM0V-2" target="XRapJzvQ2GW_e7HTbM0V-4">
          <mxGeometry relative="1" as="geometry" />
        </mxCell>
        <mxCell id="XRapJzvQ2GW_e7HTbM0V-6" style="edgeStyle=orthogonalEdgeStyle;rounded=0;orthogonalLoop=1;jettySize=auto;html=1;entryX=-0.022;entryY=0.676;entryDx=0;entryDy=0;entryPerimeter=0;" edge="1" parent="1" source="XRapJzvQ2GW_e7HTbM0V-4" target="XRapJzvQ2GW_e7HTbM0V-19">
          <mxGeometry relative="1" as="geometry">
            <Array as="points">
              <mxPoint x="155" y="736" />
            </Array>
            <mxPoint x="310" y="770" as="targetPoint" />
          </mxGeometry>
        </mxCell>
        <mxCell id="XRapJzvQ2GW_e7HTbM0V-7" value="ไม่" style="edgeLabel;html=1;align=center;verticalAlign=middle;resizable=0;points=[];" vertex="1" connectable="0" parent="XRapJzvQ2GW_e7HTbM0V-6">
          <mxGeometry x="-0.8925" y="1" relative="1" as="geometry">
            <mxPoint as="offset" />
          </mxGeometry>
        </mxCell>
        <mxCell id="XRapJzvQ2GW_e7HTbM0V-8" value="ตรวจสอบ Account &lt;br&gt;สถานะการใช้งาน" style="rounded=1;whiteSpace=wrap;html=1;" vertex="1" parent="1">
          <mxGeometry x="301.35" y="209" width="170" height="40" as="geometry" />
        </mxCell>
        <mxCell id="XRapJzvQ2GW_e7HTbM0V-9" value="" style="edgeStyle=orthogonalEdgeStyle;rounded=0;orthogonalLoop=1;jettySize=auto;html=1;" edge="1" parent="1" source="XRapJzvQ2GW_e7HTbM0V-4" target="XRapJzvQ2GW_e7HTbM0V-8">
          <mxGeometry relative="1" as="geometry">
            <Array as="points">
              <mxPoint x="265" y="230" />
              <mxPoint x="265" y="230" />
            </Array>
          </mxGeometry>
        </mxCell>
        <mxCell id="XRapJzvQ2GW_e7HTbM0V-10" value="ใช่" style="edgeLabel;html=1;align=center;verticalAlign=middle;resizable=0;points=[];" vertex="1" connectable="0" parent="XRapJzvQ2GW_e7HTbM0V-9">
          <mxGeometry x="-0.7797" y="-1" relative="1" as="geometry">
            <mxPoint as="offset" />
          </mxGeometry>
        </mxCell>
        <mxCell id="XRapJzvQ2GW_e7HTbM0V-11" value="มีใน&lt;br&gt;ระบบ &lt;br&gt;?" style="rhombus;whiteSpace=wrap;html=1;" vertex="1" parent="1">
          <mxGeometry x="379" y="288" width="75" height="70" as="geometry" />
        </mxCell>
        <mxCell id="XRapJzvQ2GW_e7HTbM0V-12" value="" style="edgeStyle=orthogonalEdgeStyle;rounded=0;orthogonalLoop=1;jettySize=auto;html=1;" edge="1" parent="1" source="XRapJzvQ2GW_e7HTbM0V-8" target="XRapJzvQ2GW_e7HTbM0V-11">
          <mxGeometry relative="1" as="geometry" />
        </mxCell>
        <mxCell id="XRapJzvQ2GW_e7HTbM0V-13" value="status&lt;br style=&quot;border-color: var(--border-color);&quot;&gt;= 1 ?" style="rhombus;whiteSpace=wrap;html=1;" vertex="1" parent="1">
          <mxGeometry x="407" y="408" width="60" height="60" as="geometry" />
        </mxCell>
        <mxCell id="XRapJzvQ2GW_e7HTbM0V-14" value="" style="edgeStyle=orthogonalEdgeStyle;rounded=0;orthogonalLoop=1;jettySize=auto;html=1;" edge="1" parent="1" source="XRapJzvQ2GW_e7HTbM0V-11" target="XRapJzvQ2GW_e7HTbM0V-13">
          <mxGeometry relative="1" as="geometry" />
        </mxCell>
        <mxCell id="XRapJzvQ2GW_e7HTbM0V-15" value="ใช่" style="edgeLabel;html=1;align=center;verticalAlign=middle;resizable=0;points=[];" vertex="1" connectable="0" parent="XRapJzvQ2GW_e7HTbM0V-14">
          <mxGeometry x="-0.3254" y="2" relative="1" as="geometry">
            <mxPoint x="-2" as="offset" />
          </mxGeometry>
        </mxCell>
        <mxCell id="XRapJzvQ2GW_e7HTbM0V-16" value="Locked&lt;br style=&quot;border-color: var(--border-color);&quot;&gt;= 1 ?&amp;nbsp;" style="rhombus;whiteSpace=wrap;html=1;" vertex="1" parent="1">
          <mxGeometry x="407.75" y="538" width="60" height="60" as="geometry" />
        </mxCell>
        <mxCell id="XRapJzvQ2GW_e7HTbM0V-17" value="" style="edgeStyle=orthogonalEdgeStyle;rounded=0;orthogonalLoop=1;jettySize=auto;html=1;" edge="1" parent="1" source="XRapJzvQ2GW_e7HTbM0V-13" target="XRapJzvQ2GW_e7HTbM0V-16">
          <mxGeometry relative="1" as="geometry" />
        </mxCell>
        <mxCell id="XRapJzvQ2GW_e7HTbM0V-18" value="ไม่" style="edgeLabel;html=1;align=center;verticalAlign=middle;resizable=0;points=[];" vertex="1" connectable="0" parent="XRapJzvQ2GW_e7HTbM0V-17">
          <mxGeometry x="-0.3745" relative="1" as="geometry">
            <mxPoint as="offset" />
          </mxGeometry>
        </mxCell>
        <mxCell id="XRapJzvQ2GW_e7HTbM0V-19" value="1" style="ellipse;whiteSpace=wrap;html=1;aspect=fixed;" vertex="1" parent="1">
          <mxGeometry x="237.5" y="702" width="50" height="50" as="geometry" />
        </mxCell>
        <mxCell id="XRapJzvQ2GW_e7HTbM0V-20" style="edgeStyle=orthogonalEdgeStyle;rounded=0;orthogonalLoop=1;jettySize=auto;html=1;exitX=0.492;exitY=0.949;exitDx=0;exitDy=0;exitPerimeter=0;" edge="1" parent="1" source="XRapJzvQ2GW_e7HTbM0V-21" target="XRapJzvQ2GW_e7HTbM0V-19">
          <mxGeometry relative="1" as="geometry">
            <Array as="points">
              <mxPoint x="206" y="416" />
              <mxPoint x="190" y="416" />
              <mxPoint x="190" y="720" />
            </Array>
          </mxGeometry>
        </mxCell>
        <mxCell id="XRapJzvQ2GW_e7HTbM0V-21" value="rerturn Error Code&amp;nbsp;001&lt;span style=&quot;font-size: medium; text-align: start;&quot;&gt;&lt;/span&gt;" style="rounded=1;whiteSpace=wrap;html=1;" vertex="1" parent="1">
          <mxGeometry x="167.5" y="368" width="77.5" height="40" as="geometry" />
        </mxCell>
        <mxCell id="XRapJzvQ2GW_e7HTbM0V-22" style="edgeStyle=orthogonalEdgeStyle;rounded=0;orthogonalLoop=1;jettySize=auto;html=1;entryX=1;entryY=1;entryDx=0;entryDy=0;" edge="1" parent="1" source="XRapJzvQ2GW_e7HTbM0V-23" target="XRapJzvQ2GW_e7HTbM0V-19">
          <mxGeometry relative="1" as="geometry">
            <Array as="points">
              <mxPoint x="342" y="745" />
              <mxPoint x="284" y="745" />
            </Array>
          </mxGeometry>
        </mxCell>
        <mxCell id="XRapJzvQ2GW_e7HTbM0V-23" value="rerturn Error Code&amp;nbsp;011&lt;span style=&quot;font-size: medium; text-align: start;&quot;&gt;&lt;/span&gt;" style="rounded=1;whiteSpace=wrap;html=1;" vertex="1" parent="1">
          <mxGeometry x="303.5" y="686" width="77.5" height="40" as="geometry" />
        </mxCell>
        <mxCell id="XRapJzvQ2GW_e7HTbM0V-24" value="" style="edgeStyle=orthogonalEdgeStyle;rounded=0;orthogonalLoop=1;jettySize=auto;html=1;entryX=0.467;entryY=0.027;entryDx=0;entryDy=0;entryPerimeter=0;" edge="1" parent="1" source="XRapJzvQ2GW_e7HTbM0V-68" target="XRapJzvQ2GW_e7HTbM0V-70">
          <mxGeometry relative="1" as="geometry" />
        </mxCell>
        <mxCell id="XRapJzvQ2GW_e7HTbM0V-25" style="edgeStyle=orthogonalEdgeStyle;rounded=0;orthogonalLoop=1;jettySize=auto;html=1;" edge="1" parent="1" source="XRapJzvQ2GW_e7HTbM0V-26" target="XRapJzvQ2GW_e7HTbM0V-19">
          <mxGeometry relative="1" as="geometry">
            <mxPoint x="230" y="670" as="targetPoint" />
            <Array as="points">
              <mxPoint x="249" y="700" />
              <mxPoint x="249" y="700" />
            </Array>
          </mxGeometry>
        </mxCell>
        <mxCell id="XRapJzvQ2GW_e7HTbM0V-26" value="rerturn Error Code&amp;nbsp;004&lt;span style=&quot;font-size: medium; text-align: start;&quot;&gt;&lt;/span&gt;" style="rounded=1;whiteSpace=wrap;html=1;" vertex="1" parent="1">
          <mxGeometry x="210" y="508" width="77.5" height="40" as="geometry" />
        </mxCell>
        <mxCell id="XRapJzvQ2GW_e7HTbM0V-27" value="" style="edgeStyle=orthogonalEdgeStyle;rounded=0;orthogonalLoop=1;jettySize=auto;html=1;" edge="1" parent="1" source="XRapJzvQ2GW_e7HTbM0V-13" target="XRapJzvQ2GW_e7HTbM0V-63">
          <mxGeometry relative="1" as="geometry">
            <mxPoint x="340" y="420" as="targetPoint" />
          </mxGeometry>
        </mxCell>
        <mxCell id="XRapJzvQ2GW_e7HTbM0V-28" value="ใช่" style="edgeLabel;html=1;align=center;verticalAlign=middle;resizable=0;points=[];" vertex="1" connectable="0" parent="XRapJzvQ2GW_e7HTbM0V-27">
          <mxGeometry x="-0.4608" y="2" relative="1" as="geometry">
            <mxPoint as="offset" />
          </mxGeometry>
        </mxCell>
        <mxCell id="XRapJzvQ2GW_e7HTbM0V-29" value="" style="edgeStyle=orthogonalEdgeStyle;rounded=0;orthogonalLoop=1;jettySize=auto;html=1;entryX=0.1;entryY=0.5;entryDx=0;entryDy=0;entryPerimeter=0;" edge="1" parent="1" source="XRapJzvQ2GW_e7HTbM0V-16" target="XRapJzvQ2GW_e7HTbM0V-32">
          <mxGeometry relative="1" as="geometry">
            <mxPoint x="459" y="568" as="targetPoint" />
            <Array as="points">
              <mxPoint x="500" y="568" />
              <mxPoint x="500" y="394" />
            </Array>
          </mxGeometry>
        </mxCell>
        <mxCell id="XRapJzvQ2GW_e7HTbM0V-30" value="" style="edgeStyle=orthogonalEdgeStyle;rounded=0;orthogonalLoop=1;jettySize=auto;html=1;" edge="1" parent="1" source="XRapJzvQ2GW_e7HTbM0V-32" target="XRapJzvQ2GW_e7HTbM0V-33">
          <mxGeometry relative="1" as="geometry">
            <mxPoint x="575" y="568" as="targetPoint" />
            <Array as="points">
              <mxPoint x="630" y="394" />
            </Array>
          </mxGeometry>
        </mxCell>
        <mxCell id="XRapJzvQ2GW_e7HTbM0V-31" value="ไม่" style="edgeLabel;html=1;align=center;verticalAlign=middle;resizable=0;points=[];" vertex="1" connectable="0" parent="XRapJzvQ2GW_e7HTbM0V-30">
          <mxGeometry x="-0.3115" y="3" relative="1" as="geometry">
            <mxPoint as="offset" />
          </mxGeometry>
        </mxCell>
        <mxCell id="XRapJzvQ2GW_e7HTbM0V-32" value="Super&lt;br&gt;Admin ?" style="rhombus;whiteSpace=wrap;html=1;" vertex="1" parent="1">
          <mxGeometry x="516.25" y="358" width="66" height="72" as="geometry" />
        </mxCell>
        <mxCell id="XRapJzvQ2GW_e7HTbM0V-33" value="ตรวจสอบสิทธิ์การใช้งาน Company นี้ไหม&lt;span style=&quot;font-size: medium; text-align: start;&quot;&gt;&lt;/span&gt;" style="rounded=1;whiteSpace=wrap;html=1;" vertex="1" parent="1">
          <mxGeometry x="575" y="548" width="110" height="42" as="geometry" />
        </mxCell>
        <mxCell id="XRapJzvQ2GW_e7HTbM0V-34" value="มี ?" style="rhombus;whiteSpace=wrap;html=1;" vertex="1" parent="1">
          <mxGeometry x="597" y="630" width="66" height="72" as="geometry" />
        </mxCell>
        <mxCell id="XRapJzvQ2GW_e7HTbM0V-35" value="" style="edgeStyle=orthogonalEdgeStyle;rounded=0;orthogonalLoop=1;jettySize=auto;html=1;" edge="1" parent="1" source="XRapJzvQ2GW_e7HTbM0V-33" target="XRapJzvQ2GW_e7HTbM0V-34">
          <mxGeometry relative="1" as="geometry" />
        </mxCell>
        <mxCell id="XRapJzvQ2GW_e7HTbM0V-36" value="Company &lt;br&gt;มีในระบบ&lt;br&gt;ไหม ?" style="rhombus;whiteSpace=wrap;html=1;" vertex="1" parent="1">
          <mxGeometry x="585" y="760" width="90" height="80" as="geometry" />
        </mxCell>
        <mxCell id="XRapJzvQ2GW_e7HTbM0V-37" value="" style="edgeStyle=orthogonalEdgeStyle;rounded=0;orthogonalLoop=1;jettySize=auto;html=1;" edge="1" parent="1" source="XRapJzvQ2GW_e7HTbM0V-34" target="XRapJzvQ2GW_e7HTbM0V-36">
          <mxGeometry relative="1" as="geometry" />
        </mxCell>
        <mxCell id="XRapJzvQ2GW_e7HTbM0V-38" value="ใช่" style="edgeLabel;html=1;align=center;verticalAlign=middle;resizable=0;points=[];" vertex="1" connectable="0" parent="XRapJzvQ2GW_e7HTbM0V-37">
          <mxGeometry x="-0.2859" relative="1" as="geometry">
            <mxPoint as="offset" />
          </mxGeometry>
        </mxCell>
        <mxCell id="XRapJzvQ2GW_e7HTbM0V-39" style="edgeStyle=orthogonalEdgeStyle;rounded=0;orthogonalLoop=1;jettySize=auto;html=1;" edge="1" parent="1">
          <mxGeometry relative="1" as="geometry">
            <mxPoint x="777.5" y="666" as="sourcePoint" />
            <mxPoint x="800" y="666" as="targetPoint" />
          </mxGeometry>
        </mxCell>
        <mxCell id="XRapJzvQ2GW_e7HTbM0V-40" style="edgeStyle=orthogonalEdgeStyle;rounded=0;orthogonalLoop=1;jettySize=auto;html=1;" edge="1" parent="1" source="XRapJzvQ2GW_e7HTbM0V-34">
          <mxGeometry relative="1" as="geometry">
            <mxPoint x="700" y="666" as="targetPoint" />
          </mxGeometry>
        </mxCell>
        <mxCell id="XRapJzvQ2GW_e7HTbM0V-41" value="ไม่" style="edgeLabel;html=1;align=center;verticalAlign=middle;resizable=0;points=[];" vertex="1" connectable="0" parent="XRapJzvQ2GW_e7HTbM0V-40">
          <mxGeometry x="-0.0865" y="2" relative="1" as="geometry">
            <mxPoint as="offset" />
          </mxGeometry>
        </mxCell>
        <mxCell id="XRapJzvQ2GW_e7HTbM0V-42" style="edgeStyle=orthogonalEdgeStyle;rounded=0;orthogonalLoop=1;jettySize=auto;html=1;entryX=1;entryY=0.5;entryDx=0;entryDy=0;" edge="1" parent="1" source="XRapJzvQ2GW_e7HTbM0V-44" target="XRapJzvQ2GW_e7HTbM0V-86">
          <mxGeometry relative="1" as="geometry" />
        </mxCell>
        <mxCell id="XRapJzvQ2GW_e7HTbM0V-43" value="ใช่" style="edgeLabel;html=1;align=center;verticalAlign=middle;resizable=0;points=[];" vertex="1" connectable="0" parent="XRapJzvQ2GW_e7HTbM0V-42">
          <mxGeometry x="-0.0994" relative="1" as="geometry">
            <mxPoint as="offset" />
          </mxGeometry>
        </mxCell>
        <mxCell id="XRapJzvQ2GW_e7HTbM0V-44" value="Company &lt;br&gt;Active ?" style="rhombus;whiteSpace=wrap;html=1;" vertex="1" parent="1">
          <mxGeometry x="585" y="880" width="90" height="80" as="geometry" />
        </mxCell>
        <mxCell id="XRapJzvQ2GW_e7HTbM0V-45" value="ใช่" style="edgeStyle=orthogonalEdgeStyle;rounded=0;orthogonalLoop=1;jettySize=auto;html=1;" edge="1" parent="1" source="XRapJzvQ2GW_e7HTbM0V-36" target="XRapJzvQ2GW_e7HTbM0V-44">
          <mxGeometry relative="1" as="geometry" />
        </mxCell>
        <mxCell id="XRapJzvQ2GW_e7HTbM0V-46" value="" style="edgeStyle=orthogonalEdgeStyle;rounded=0;orthogonalLoop=1;jettySize=auto;html=1;" edge="1" parent="1" source="XRapJzvQ2GW_e7HTbM0V-36">
          <mxGeometry relative="1" as="geometry">
            <mxPoint x="725" y="800" as="targetPoint" />
          </mxGeometry>
        </mxCell>
        <mxCell id="XRapJzvQ2GW_e7HTbM0V-47" value="ไม่" style="edgeLabel;html=1;align=center;verticalAlign=middle;resizable=0;points=[];" vertex="1" connectable="0" parent="XRapJzvQ2GW_e7HTbM0V-46">
          <mxGeometry x="-0.1127" relative="1" as="geometry">
            <mxPoint as="offset" />
          </mxGeometry>
        </mxCell>
        <mxCell id="XRapJzvQ2GW_e7HTbM0V-48" value="" style="edgeStyle=orthogonalEdgeStyle;rounded=0;orthogonalLoop=1;jettySize=auto;html=1;" edge="1" parent="1" source="XRapJzvQ2GW_e7HTbM0V-44" target="XRapJzvQ2GW_e7HTbM0V-83">
          <mxGeometry relative="1" as="geometry">
            <mxPoint x="725" y="920" as="targetPoint" />
          </mxGeometry>
        </mxCell>
        <mxCell id="XRapJzvQ2GW_e7HTbM0V-49" value="ไม่" style="edgeLabel;html=1;align=center;verticalAlign=middle;resizable=0;points=[];" vertex="1" connectable="0" parent="XRapJzvQ2GW_e7HTbM0V-48">
          <mxGeometry x="-0.2152" y="2" relative="1" as="geometry">
            <mxPoint as="offset" />
          </mxGeometry>
        </mxCell>
        <mxCell id="XRapJzvQ2GW_e7HTbM0V-50" style="edgeStyle=orthogonalEdgeStyle;rounded=0;orthogonalLoop=1;jettySize=auto;html=1;entryX=0.5;entryY=0;entryDx=0;entryDy=0;" edge="1" parent="1" source="XRapJzvQ2GW_e7HTbM0V-32" target="XRapJzvQ2GW_e7HTbM0V-86">
          <mxGeometry relative="1" as="geometry">
            <mxPoint x="492" y="900" as="targetPoint" />
            <Array as="points">
              <mxPoint x="549" y="670" />
              <mxPoint x="462" y="670" />
            </Array>
          </mxGeometry>
        </mxCell>
        <mxCell id="XRapJzvQ2GW_e7HTbM0V-51" value="ใช่" style="edgeLabel;html=1;align=center;verticalAlign=middle;resizable=0;points=[];" vertex="1" connectable="0" parent="XRapJzvQ2GW_e7HTbM0V-50">
          <mxGeometry x="-0.3215" y="2" relative="1" as="geometry">
            <mxPoint as="offset" />
          </mxGeometry>
        </mxCell>
        <mxCell id="XRapJzvQ2GW_e7HTbM0V-52" style="edgeStyle=orthogonalEdgeStyle;rounded=0;orthogonalLoop=1;jettySize=auto;html=1;entryX=1;entryY=0.5;entryDx=0;entryDy=0;" edge="1" parent="1" source="XRapJzvQ2GW_e7HTbM0V-53" target="XRapJzvQ2GW_e7HTbM0V-109">
          <mxGeometry relative="1" as="geometry" />
        </mxCell>
        <mxCell id="XRapJzvQ2GW_e7HTbM0V-53" value="2" style="ellipse;whiteSpace=wrap;html=1;aspect=fixed;" vertex="1" parent="1">
          <mxGeometry x="738.75" y="1010" width="50" height="50" as="geometry" />
        </mxCell>
        <mxCell id="XRapJzvQ2GW_e7HTbM0V-54" style="edgeStyle=orthogonalEdgeStyle;rounded=0;orthogonalLoop=1;jettySize=auto;html=1;entryX=1;entryY=0.5;entryDx=0;entryDy=0;" edge="1" parent="1" source="XRapJzvQ2GW_e7HTbM0V-73" target="XRapJzvQ2GW_e7HTbM0V-53">
          <mxGeometry relative="1" as="geometry">
            <mxPoint x="825" y="820" as="targetPoint" />
            <Array as="points">
              <mxPoint x="950" y="732" />
              <mxPoint x="950" y="1035" />
            </Array>
            <mxPoint x="840.0285714285715" y="686" as="sourcePoint" />
          </mxGeometry>
        </mxCell>
        <mxCell id="XRapJzvQ2GW_e7HTbM0V-55" style="edgeStyle=orthogonalEdgeStyle;rounded=0;orthogonalLoop=1;jettySize=auto;html=1;entryX=0;entryY=0.5;entryDx=0;entryDy=0;" edge="1" parent="1" target="XRapJzvQ2GW_e7HTbM0V-79">
          <mxGeometry relative="1" as="geometry">
            <Array as="points">
              <mxPoint x="820" y="800" />
              <mxPoint x="820" y="800" />
            </Array>
            <mxPoint x="802.5" y="800.037037037037" as="sourcePoint" />
          </mxGeometry>
        </mxCell>
        <mxCell id="XRapJzvQ2GW_e7HTbM0V-56" value="" style="edgeStyle=orthogonalEdgeStyle;rounded=0;orthogonalLoop=1;jettySize=auto;html=1;entryX=0.5;entryY=0;entryDx=0;entryDy=0;" edge="1" parent="1" source="XRapJzvQ2GW_e7HTbM0V-57" target="XRapJzvQ2GW_e7HTbM0V-21">
          <mxGeometry relative="1" as="geometry" />
        </mxCell>
        <mxCell id="XRapJzvQ2GW_e7HTbM0V-57" value="บันทึกข้อมูล&lt;span style=&quot;font-size: medium; text-align: start;&quot;&gt;&lt;/span&gt;" style="rounded=1;whiteSpace=wrap;html=1;" vertex="1" parent="1">
          <mxGeometry x="167.5" y="303" width="77.5" height="40" as="geometry" />
        </mxCell>
        <mxCell id="XRapJzvQ2GW_e7HTbM0V-58" value="" style="edgeStyle=orthogonalEdgeStyle;rounded=0;orthogonalLoop=1;jettySize=auto;html=1;" edge="1" parent="1" source="XRapJzvQ2GW_e7HTbM0V-11" target="XRapJzvQ2GW_e7HTbM0V-61">
          <mxGeometry relative="1" as="geometry">
            <mxPoint x="199" y="378" as="targetPoint" />
            <mxPoint x="349" y="323" as="sourcePoint" />
          </mxGeometry>
        </mxCell>
        <mxCell id="XRapJzvQ2GW_e7HTbM0V-59" value="ไม่" style="edgeLabel;html=1;align=center;verticalAlign=middle;resizable=0;points=[];" vertex="1" connectable="0" parent="XRapJzvQ2GW_e7HTbM0V-58">
          <mxGeometry x="-0.6573" y="2" relative="1" as="geometry">
            <mxPoint as="offset" />
          </mxGeometry>
        </mxCell>
        <mxCell id="XRapJzvQ2GW_e7HTbM0V-60" style="edgeStyle=orthogonalEdgeStyle;rounded=0;orthogonalLoop=1;jettySize=auto;html=1;" edge="1" parent="1" source="XRapJzvQ2GW_e7HTbM0V-61" target="XRapJzvQ2GW_e7HTbM0V-57">
          <mxGeometry relative="1" as="geometry" />
        </mxCell>
        <mxCell id="XRapJzvQ2GW_e7HTbM0V-61" value="สร้างข้อมูล ActivityLog&lt;span style=&quot;font-size: medium; text-align: start;&quot;&gt;&lt;/span&gt;" style="rounded=1;whiteSpace=wrap;html=1;" vertex="1" parent="1">
          <mxGeometry x="270" y="303" width="77.5" height="40" as="geometry" />
        </mxCell>
        <mxCell id="XRapJzvQ2GW_e7HTbM0V-62" style="edgeStyle=orthogonalEdgeStyle;rounded=0;orthogonalLoop=1;jettySize=auto;html=1;" edge="1" parent="1" source="XRapJzvQ2GW_e7HTbM0V-63" target="XRapJzvQ2GW_e7HTbM0V-65">
          <mxGeometry relative="1" as="geometry" />
        </mxCell>
        <mxCell id="XRapJzvQ2GW_e7HTbM0V-63" value="สร้างข้อมูล ActivityLog&lt;span style=&quot;font-size: medium; text-align: start;&quot;&gt;&lt;/span&gt;" style="rounded=1;whiteSpace=wrap;html=1;" vertex="1" parent="1">
          <mxGeometry x="301.35" y="418" width="77.5" height="40" as="geometry" />
        </mxCell>
        <mxCell id="XRapJzvQ2GW_e7HTbM0V-64" style="edgeStyle=orthogonalEdgeStyle;rounded=0;orthogonalLoop=1;jettySize=auto;html=1;entryX=0.5;entryY=0;entryDx=0;entryDy=0;" edge="1" parent="1" source="XRapJzvQ2GW_e7HTbM0V-65" target="XRapJzvQ2GW_e7HTbM0V-26">
          <mxGeometry relative="1" as="geometry">
            <Array as="points">
              <mxPoint x="234" y="478" />
            </Array>
          </mxGeometry>
        </mxCell>
        <mxCell id="XRapJzvQ2GW_e7HTbM0V-65" value="บันทึกข้อมูล&lt;span style=&quot;font-size: medium; text-align: start;&quot;&gt;&lt;/span&gt;" style="rounded=1;whiteSpace=wrap;html=1;" vertex="1" parent="1">
          <mxGeometry x="210" y="418" width="77.5" height="40" as="geometry" />
        </mxCell>
        <mxCell id="XRapJzvQ2GW_e7HTbM0V-66" value="" style="edgeStyle=orthogonalEdgeStyle;rounded=0;orthogonalLoop=1;jettySize=auto;html=1;" edge="1" parent="1" source="XRapJzvQ2GW_e7HTbM0V-16" target="XRapJzvQ2GW_e7HTbM0V-68">
          <mxGeometry relative="1" as="geometry">
            <mxPoint x="408" y="568" as="sourcePoint" />
            <mxPoint x="368" y="625" as="targetPoint" />
          </mxGeometry>
        </mxCell>
        <mxCell id="XRapJzvQ2GW_e7HTbM0V-67" value="ใช่" style="edgeLabel;html=1;align=center;verticalAlign=middle;resizable=0;points=[];" vertex="1" connectable="0" parent="XRapJzvQ2GW_e7HTbM0V-66">
          <mxGeometry x="-0.4608" y="1" relative="1" as="geometry">
            <mxPoint as="offset" />
          </mxGeometry>
        </mxCell>
        <mxCell id="XRapJzvQ2GW_e7HTbM0V-68" value="สร้างข้อมูล ActivityLog&lt;span style=&quot;font-size: medium; text-align: start;&quot;&gt;&lt;/span&gt;" style="rounded=1;whiteSpace=wrap;html=1;" vertex="1" parent="1">
          <mxGeometry x="301.35" y="548" width="77.5" height="40" as="geometry" />
        </mxCell>
        <mxCell id="XRapJzvQ2GW_e7HTbM0V-69" value="" style="edgeStyle=orthogonalEdgeStyle;rounded=0;orthogonalLoop=1;jettySize=auto;html=1;" edge="1" parent="1" source="XRapJzvQ2GW_e7HTbM0V-70" target="XRapJzvQ2GW_e7HTbM0V-23">
          <mxGeometry relative="1" as="geometry" />
        </mxCell>
        <mxCell id="XRapJzvQ2GW_e7HTbM0V-70" value="บันทึกข้อมูล&lt;span style=&quot;font-size: medium; text-align: start;&quot;&gt;&lt;/span&gt;" style="rounded=1;whiteSpace=wrap;html=1;" vertex="1" parent="1">
          <mxGeometry x="303.5" y="620" width="77.5" height="40" as="geometry" />
        </mxCell>
        <mxCell id="XRapJzvQ2GW_e7HTbM0V-71" style="edgeStyle=orthogonalEdgeStyle;rounded=0;orthogonalLoop=1;jettySize=auto;html=1;entryX=0.5;entryY=0;entryDx=0;entryDy=0;" edge="1" parent="1" source="XRapJzvQ2GW_e7HTbM0V-72" target="XRapJzvQ2GW_e7HTbM0V-73">
          <mxGeometry relative="1" as="geometry" />
        </mxCell>
        <mxCell id="XRapJzvQ2GW_e7HTbM0V-72" value="บันทึกข้อมูล" style="rounded=1;whiteSpace=wrap;html=1;" vertex="1" parent="1">
          <mxGeometry x="800" y="646" width="77.5" height="40" as="geometry" />
        </mxCell>
        <mxCell id="XRapJzvQ2GW_e7HTbM0V-73" value="rerturn Error Code&amp;nbsp;002&lt;span style=&quot;font-size: medium; text-align: start;&quot;&gt;&lt;/span&gt;" style="rounded=1;whiteSpace=wrap;html=1;" vertex="1" parent="1">
          <mxGeometry x="800" y="712" width="77.5" height="40" as="geometry" />
        </mxCell>
        <mxCell id="XRapJzvQ2GW_e7HTbM0V-74" value="สร้างข้อมูล ActivityLog&lt;span style=&quot;font-size: medium; text-align: start;&quot;&gt;&lt;/span&gt;" style="rounded=1;whiteSpace=wrap;html=1;" vertex="1" parent="1">
          <mxGeometry x="700" y="646" width="77.5" height="40" as="geometry" />
        </mxCell>
        <mxCell id="XRapJzvQ2GW_e7HTbM0V-75" style="edgeStyle=orthogonalEdgeStyle;rounded=0;orthogonalLoop=1;jettySize=auto;html=1;" edge="1" parent="1" source="XRapJzvQ2GW_e7HTbM0V-76">
          <mxGeometry relative="1" as="geometry">
            <mxPoint x="950" y="860" as="targetPoint" />
          </mxGeometry>
        </mxCell>
        <mxCell id="XRapJzvQ2GW_e7HTbM0V-76" value="rerturn Error Code&amp;nbsp;007&lt;span style=&quot;font-size: medium; text-align: start;&quot;&gt;&lt;/span&gt;" style="rounded=1;whiteSpace=wrap;html=1;" vertex="1" parent="1">
          <mxGeometry x="830" y="840" width="77.5" height="40" as="geometry" />
        </mxCell>
        <mxCell id="XRapJzvQ2GW_e7HTbM0V-77" value="สร้างข้อมูล ActivityLog&lt;span style=&quot;font-size: medium; text-align: start;&quot;&gt;&lt;/span&gt;" style="rounded=1;whiteSpace=wrap;html=1;" vertex="1" parent="1">
          <mxGeometry x="725" y="780" width="77.5" height="40" as="geometry" />
        </mxCell>
        <mxCell id="XRapJzvQ2GW_e7HTbM0V-78" style="edgeStyle=orthogonalEdgeStyle;rounded=0;orthogonalLoop=1;jettySize=auto;html=1;" edge="1" parent="1" source="XRapJzvQ2GW_e7HTbM0V-79" target="XRapJzvQ2GW_e7HTbM0V-76">
          <mxGeometry relative="1" as="geometry" />
        </mxCell>
        <mxCell id="XRapJzvQ2GW_e7HTbM0V-79" value="บันทึกข้อมูล" style="rounded=1;whiteSpace=wrap;html=1;" vertex="1" parent="1">
          <mxGeometry x="830" y="780" width="77.5" height="40" as="geometry" />
        </mxCell>
        <mxCell id="XRapJzvQ2GW_e7HTbM0V-80" style="edgeStyle=orthogonalEdgeStyle;rounded=0;orthogonalLoop=1;jettySize=auto;html=1;" edge="1" parent="1" source="XRapJzvQ2GW_e7HTbM0V-81" target="XRapJzvQ2GW_e7HTbM0V-53">
          <mxGeometry relative="1" as="geometry">
            <mxPoint x="869" y="1030" as="targetPoint" />
          </mxGeometry>
        </mxCell>
        <mxCell id="XRapJzvQ2GW_e7HTbM0V-81" value="rerturn Error Code&amp;nbsp;051&lt;span style=&quot;font-size: medium; text-align: start;&quot;&gt;&lt;/span&gt;" style="rounded=1;whiteSpace=wrap;html=1;" vertex="1" parent="1">
          <mxGeometry x="830" y="960" width="77.5" height="40" as="geometry" />
        </mxCell>
        <mxCell id="XRapJzvQ2GW_e7HTbM0V-82" style="edgeStyle=orthogonalEdgeStyle;rounded=0;orthogonalLoop=1;jettySize=auto;html=1;entryX=-0.036;entryY=0.462;entryDx=0;entryDy=0;entryPerimeter=0;" edge="1" parent="1" source="XRapJzvQ2GW_e7HTbM0V-83" target="XRapJzvQ2GW_e7HTbM0V-85">
          <mxGeometry relative="1" as="geometry" />
        </mxCell>
        <mxCell id="XRapJzvQ2GW_e7HTbM0V-83" value="สร้างข้อมูล ActivityLog&lt;span style=&quot;font-size: medium; text-align: start;&quot;&gt;&lt;/span&gt;" style="rounded=1;whiteSpace=wrap;html=1;" vertex="1" parent="1">
          <mxGeometry x="722.5" y="900" width="77.5" height="40" as="geometry" />
        </mxCell>
        <mxCell id="XRapJzvQ2GW_e7HTbM0V-84" style="edgeStyle=orthogonalEdgeStyle;rounded=0;orthogonalLoop=1;jettySize=auto;html=1;" edge="1" parent="1" source="XRapJzvQ2GW_e7HTbM0V-85" target="XRapJzvQ2GW_e7HTbM0V-81">
          <mxGeometry relative="1" as="geometry" />
        </mxCell>
        <mxCell id="XRapJzvQ2GW_e7HTbM0V-85" value="บันทึกข้อมูล" style="rounded=1;whiteSpace=wrap;html=1;" vertex="1" parent="1">
          <mxGeometry x="830" y="900" width="77.5" height="40" as="geometry" />
        </mxCell>
        <mxCell id="XRapJzvQ2GW_e7HTbM0V-86" value="ดึงข้อมูลหัวข้อหลัก ข้อมูลของการประชุมผู้ถือหุ้น" style="rounded=1;whiteSpace=wrap;html=1;" vertex="1" parent="1">
          <mxGeometry x="402" y="750" width="120" height="40" as="geometry" />
        </mxCell>
        <mxCell id="XRapJzvQ2GW_e7HTbM0V-87" style="edgeStyle=orthogonalEdgeStyle;rounded=0;orthogonalLoop=1;jettySize=auto;html=1;entryX=0.5;entryY=0;entryDx=0;entryDy=0;" edge="1" parent="1" source="XRapJzvQ2GW_e7HTbM0V-88" target="XRapJzvQ2GW_e7HTbM0V-101">
          <mxGeometry relative="1" as="geometry">
            <mxPoint x="462" y="940" as="targetPoint" />
          </mxGeometry>
        </mxCell>
        <mxCell id="XRapJzvQ2GW_e7HTbM0V-88" value="มี?" style="rhombus;whiteSpace=wrap;html=1;" vertex="1" parent="1">
          <mxGeometry x="437.75" y="820" width="48.5" height="40" as="geometry" />
        </mxCell>
        <mxCell id="XRapJzvQ2GW_e7HTbM0V-89" value="" style="edgeStyle=orthogonalEdgeStyle;rounded=0;orthogonalLoop=1;jettySize=auto;html=1;" edge="1" parent="1" source="XRapJzvQ2GW_e7HTbM0V-86" target="XRapJzvQ2GW_e7HTbM0V-88">
          <mxGeometry relative="1" as="geometry" />
        </mxCell>
        <mxCell id="XRapJzvQ2GW_e7HTbM0V-90" style="edgeStyle=orthogonalEdgeStyle;rounded=0;orthogonalLoop=1;jettySize=auto;html=1;" edge="1" parent="1" source="XRapJzvQ2GW_e7HTbM0V-91" target="XRapJzvQ2GW_e7HTbM0V-19">
          <mxGeometry relative="1" as="geometry" />
        </mxCell>
        <mxCell id="XRapJzvQ2GW_e7HTbM0V-91" value="return Error code 095" style="rounded=1;whiteSpace=wrap;html=1;" vertex="1" parent="1">
          <mxGeometry x="166.25" y="800" width="80" height="50" as="geometry" />
        </mxCell>
        <mxCell id="XRapJzvQ2GW_e7HTbM0V-92" style="edgeStyle=orthogonalEdgeStyle;rounded=0;orthogonalLoop=1;jettySize=auto;html=1;" edge="1" parent="1" source="XRapJzvQ2GW_e7HTbM0V-95" target="XRapJzvQ2GW_e7HTbM0V-91">
          <mxGeometry relative="1" as="geometry" />
        </mxCell>
        <mxCell id="XRapJzvQ2GW_e7HTbM0V-93" value="" style="edgeStyle=orthogonalEdgeStyle;rounded=0;orthogonalLoop=1;jettySize=auto;html=1;" edge="1" parent="1" source="XRapJzvQ2GW_e7HTbM0V-88" target="XRapJzvQ2GW_e7HTbM0V-95">
          <mxGeometry relative="1" as="geometry">
            <mxPoint x="438" y="840" as="sourcePoint" />
            <mxPoint x="290" y="825" as="targetPoint" />
          </mxGeometry>
        </mxCell>
        <mxCell id="XRapJzvQ2GW_e7HTbM0V-94" value="ไม่" style="edgeLabel;html=1;align=center;verticalAlign=middle;resizable=0;points=[];" vertex="1" connectable="0" parent="XRapJzvQ2GW_e7HTbM0V-93">
          <mxGeometry x="-0.7326" relative="1" as="geometry">
            <mxPoint as="offset" />
          </mxGeometry>
        </mxCell>
        <mxCell id="XRapJzvQ2GW_e7HTbM0V-95" value="สร้างข้อมูล ActivityLog&lt;span style=&quot;font-size: medium; text-align: start;&quot;&gt;&lt;/span&gt;" style="rounded=1;whiteSpace=wrap;html=1;" vertex="1" parent="1">
          <mxGeometry x="324.5" y="860" width="77.5" height="40" as="geometry" />
        </mxCell>
        <mxCell id="XRapJzvQ2GW_e7HTbM0V-96" value="บันทึกข้อมูล&lt;span style=&quot;font-size: medium; text-align: start;&quot;&gt;&lt;/span&gt;" style="rounded=1;whiteSpace=wrap;html=1;" vertex="1" parent="1">
          <mxGeometry x="225" y="860" width="77.5" height="40" as="geometry" />
        </mxCell>
        <mxCell id="XRapJzvQ2GW_e7HTbM0V-97" style="edgeStyle=orthogonalEdgeStyle;rounded=0;orthogonalLoop=1;jettySize=auto;html=1;entryX=1;entryY=0.5;entryDx=0;entryDy=0;" edge="1" parent="1" source="XRapJzvQ2GW_e7HTbM0V-101" target="XRapJzvQ2GW_e7HTbM0V-105">
          <mxGeometry relative="1" as="geometry" />
        </mxCell>
        <mxCell id="XRapJzvQ2GW_e7HTbM0V-98" value="ไม่" style="edgeLabel;html=1;align=center;verticalAlign=middle;resizable=0;points=[];" vertex="1" connectable="0" parent="XRapJzvQ2GW_e7HTbM0V-97">
          <mxGeometry x="-0.1526" y="-2" relative="1" as="geometry">
            <mxPoint as="offset" />
          </mxGeometry>
        </mxCell>
        <mxCell id="XRapJzvQ2GW_e7HTbM0V-101" value="Active ?" style="rhombus;whiteSpace=wrap;html=1;" vertex="1" parent="1">
          <mxGeometry x="437.75" y="980" width="48.5" height="40" as="geometry" />
        </mxCell>
        <mxCell id="XRapJzvQ2GW_e7HTbM0V-102" value="" style="group" vertex="1" connectable="0" parent="1">
          <mxGeometry x="150" y="920" width="235.75" height="100" as="geometry" />
        </mxCell>
        <mxCell id="XRapJzvQ2GW_e7HTbM0V-103" value="return Error code 098" style="rounded=1;whiteSpace=wrap;html=1;" vertex="1" parent="XRapJzvQ2GW_e7HTbM0V-102">
          <mxGeometry width="80" height="50" as="geometry" />
        </mxCell>
        <mxCell id="XRapJzvQ2GW_e7HTbM0V-104" style="edgeStyle=orthogonalEdgeStyle;rounded=0;orthogonalLoop=1;jettySize=auto;html=1;" edge="1" parent="XRapJzvQ2GW_e7HTbM0V-102" source="XRapJzvQ2GW_e7HTbM0V-105" target="XRapJzvQ2GW_e7HTbM0V-103">
          <mxGeometry relative="1" as="geometry" />
        </mxCell>
        <mxCell id="XRapJzvQ2GW_e7HTbM0V-105" value="สร้างข้อมูล ActivityLog&lt;span style=&quot;font-size: medium; text-align: start;&quot;&gt;&lt;/span&gt;" style="rounded=1;whiteSpace=wrap;html=1;" vertex="1" parent="XRapJzvQ2GW_e7HTbM0V-102">
          <mxGeometry x="158.25" y="60" width="77.5" height="40" as="geometry" />
        </mxCell>
        <mxCell id="XRapJzvQ2GW_e7HTbM0V-106" value="บันทึกข้อมูล&lt;span style=&quot;font-size: medium; text-align: start;&quot;&gt;&lt;/span&gt;" style="rounded=1;whiteSpace=wrap;html=1;" vertex="1" parent="XRapJzvQ2GW_e7HTbM0V-102">
          <mxGeometry x="58.75" y="60" width="77.5" height="40" as="geometry" />
        </mxCell>
        <mxCell id="XRapJzvQ2GW_e7HTbM0V-107" style="edgeStyle=orthogonalEdgeStyle;rounded=0;orthogonalLoop=1;jettySize=auto;html=1;entryX=0;entryY=1;entryDx=0;entryDy=0;" edge="1" parent="1" source="XRapJzvQ2GW_e7HTbM0V-103" target="XRapJzvQ2GW_e7HTbM0V-19">
          <mxGeometry relative="1" as="geometry">
            <Array as="points">
              <mxPoint x="140" y="945" />
              <mxPoint x="140" y="745" />
            </Array>
          </mxGeometry>
        </mxCell>
        <mxCell id="XRapJzvQ2GW_e7HTbM0V-109" value="สิ้นสุด" style="ellipse;whiteSpace=wrap;html=1;" vertex="1" parent="1">
          <mxGeometry x="443" y="1790" width="100" height="50" as="geometry" />
        </mxCell>
        <mxCell id="XRapJzvQ2GW_e7HTbM0V-110" style="edgeStyle=orthogonalEdgeStyle;rounded=0;orthogonalLoop=1;jettySize=auto;html=1;" edge="1" parent="1" source="XRapJzvQ2GW_e7HTbM0V-111" target="XRapJzvQ2GW_e7HTbM0V-109">
          <mxGeometry relative="1" as="geometry">
            <Array as="points">
              <mxPoint x="269" y="1815" />
              <mxPoint x="269" y="1815" />
            </Array>
          </mxGeometry>
        </mxCell>
        <mxCell id="XRapJzvQ2GW_e7HTbM0V-111" value="1" style="ellipse;whiteSpace=wrap;html=1;aspect=fixed;" vertex="1" parent="1">
          <mxGeometry x="65" y="1780" width="50" height="50" as="geometry" />
        </mxCell>
        <mxCell id="Lg2oasvu8VgCZ8ZMKqVV-1" style="edgeStyle=orthogonalEdgeStyle;rounded=0;orthogonalLoop=1;jettySize=auto;html=1;entryX=0.5;entryY=0;entryDx=0;entryDy=0;" edge="1" parent="1" target="Lg2oasvu8VgCZ8ZMKqVV-7" source="XRapJzvQ2GW_e7HTbM0V-101">
          <mxGeometry relative="1" as="geometry">
            <mxPoint x="463.25" y="1020" as="sourcePoint" />
          </mxGeometry>
        </mxCell>
        <mxCell id="Lg2oasvu8VgCZ8ZMKqVV-2" value="ใช่" style="edgeLabel;html=1;align=center;verticalAlign=middle;resizable=0;points=[];" vertex="1" connectable="0" parent="Lg2oasvu8VgCZ8ZMKqVV-1">
          <mxGeometry x="-0.3111" y="1" relative="1" as="geometry">
            <mxPoint as="offset" />
          </mxGeometry>
        </mxCell>
        <mxCell id="Lg2oasvu8VgCZ8ZMKqVV-6" style="edgeStyle=orthogonalEdgeStyle;rounded=0;orthogonalLoop=1;jettySize=auto;html=1;entryX=0;entryY=0;entryDx=0;entryDy=0;" edge="1" parent="1" source="Lg2oasvu8VgCZ8ZMKqVV-28" target="XRapJzvQ2GW_e7HTbM0V-109">
          <mxGeometry relative="1" as="geometry">
            <Array as="points">
              <mxPoint x="239" y="1740" />
              <mxPoint x="299" y="1740" />
              <mxPoint x="299" y="1780" />
              <mxPoint x="458" y="1780" />
            </Array>
            <mxPoint x="571.3" y="1825" as="targetPoint" />
          </mxGeometry>
        </mxCell>
        <mxCell id="Lg2oasvu8VgCZ8ZMKqVV-7" value="Picture?" style="rhombus;whiteSpace=wrap;html=1;" vertex="1" parent="1">
          <mxGeometry x="432.59000000000003" y="1060" width="60" height="60" as="geometry" />
        </mxCell>
        <mxCell id="Lg2oasvu8VgCZ8ZMKqVV-8" style="edgeStyle=orthogonalEdgeStyle;rounded=0;orthogonalLoop=1;jettySize=auto;html=1;entryX=0.5;entryY=0;entryDx=0;entryDy=0;" edge="1" parent="1" source="Lg2oasvu8VgCZ8ZMKqVV-7" target="Lg2oasvu8VgCZ8ZMKqVV-10">
          <mxGeometry relative="1" as="geometry">
            <mxPoint x="462.59000000000003" y="1155" as="targetPoint" />
          </mxGeometry>
        </mxCell>
        <mxCell id="Lg2oasvu8VgCZ8ZMKqVV-9" value="ใช่" style="edgeLabel;html=1;align=center;verticalAlign=middle;resizable=0;points=[];" vertex="1" connectable="0" parent="Lg2oasvu8VgCZ8ZMKqVV-8">
          <mxGeometry x="-0.1526" y="1" relative="1" as="geometry">
            <mxPoint as="offset" />
          </mxGeometry>
        </mxCell>
        <mxCell id="Lg2oasvu8VgCZ8ZMKqVV-10" value="ไฟล&lt;br&gt;รูปภาพ ?" style="rhombus;whiteSpace=wrap;html=1;" vertex="1" parent="1">
          <mxGeometry x="316.47" y="1120" width="65" height="65" as="geometry" />
        </mxCell>
        <mxCell id="Lg2oasvu8VgCZ8ZMKqVV-11" value="ขนาดไฟล&lt;br&gt;&amp;nbsp;&amp;gt; 50mb ?" style="rhombus;whiteSpace=wrap;html=1;" vertex="1" parent="1">
          <mxGeometry x="308.97" y="1207.5" width="80" height="70" as="geometry" />
        </mxCell>
        <mxCell id="Lg2oasvu8VgCZ8ZMKqVV-12" value="" style="edgeStyle=orthogonalEdgeStyle;rounded=0;orthogonalLoop=1;jettySize=auto;html=1;" edge="1" parent="1" source="Lg2oasvu8VgCZ8ZMKqVV-10" target="Lg2oasvu8VgCZ8ZMKqVV-11">
          <mxGeometry relative="1" as="geometry">
            <Array as="points">
              <mxPoint x="347.97" y="1205.5" />
              <mxPoint x="348.97" y="1205.5" />
            </Array>
          </mxGeometry>
        </mxCell>
        <mxCell id="Lg2oasvu8VgCZ8ZMKqVV-13" value="ใช่" style="edgeLabel;html=1;align=center;verticalAlign=middle;resizable=0;points=[];" vertex="1" connectable="0" parent="Lg2oasvu8VgCZ8ZMKqVV-12">
          <mxGeometry x="0.4745" y="1" relative="1" as="geometry">
            <mxPoint as="offset" />
          </mxGeometry>
        </mxCell>
        <mxCell id="Lg2oasvu8VgCZ8ZMKqVV-14" value="rerturn Error Code 043&lt;span style=&quot;font-size: medium; text-align: start;&quot;&gt;&lt;/span&gt;" style="rounded=1;whiteSpace=wrap;html=1;" vertex="1" parent="1">
          <mxGeometry x="122.32" y="1202.5" width="77.5" height="40" as="geometry" />
        </mxCell>
        <mxCell id="Lg2oasvu8VgCZ8ZMKqVV-15" value="สร้างข้อมูล ActivityLog&lt;span style=&quot;font-size: medium; text-align: start;&quot;&gt;&lt;/span&gt;" style="rounded=1;whiteSpace=wrap;html=1;" vertex="1" parent="1">
          <mxGeometry x="213.97000000000003" y="1132.5" width="77.5" height="40" as="geometry" />
        </mxCell>
        <mxCell id="Lg2oasvu8VgCZ8ZMKqVV-16" style="edgeStyle=orthogonalEdgeStyle;rounded=0;orthogonalLoop=1;jettySize=auto;html=1;" edge="1" parent="1" source="Lg2oasvu8VgCZ8ZMKqVV-10" target="Lg2oasvu8VgCZ8ZMKqVV-15">
          <mxGeometry relative="1" as="geometry" />
        </mxCell>
        <mxCell id="Lg2oasvu8VgCZ8ZMKqVV-17" value="ไม่" style="edgeLabel;html=1;align=center;verticalAlign=middle;resizable=0;points=[];" vertex="1" connectable="0" parent="Lg2oasvu8VgCZ8ZMKqVV-16">
          <mxGeometry x="0.5378" relative="1" as="geometry">
            <mxPoint as="offset" />
          </mxGeometry>
        </mxCell>
        <mxCell id="Lg2oasvu8VgCZ8ZMKqVV-18" value="" style="edgeStyle=orthogonalEdgeStyle;rounded=0;orthogonalLoop=1;jettySize=auto;html=1;entryX=0.5;entryY=0;entryDx=0;entryDy=0;" edge="1" parent="1" source="Lg2oasvu8VgCZ8ZMKqVV-19" target="Lg2oasvu8VgCZ8ZMKqVV-14">
          <mxGeometry relative="1" as="geometry" />
        </mxCell>
        <mxCell id="Lg2oasvu8VgCZ8ZMKqVV-19" value="บันทึกข้อมูล&lt;span style=&quot;font-size: medium; text-align: start;&quot;&gt;&lt;/span&gt;" style="rounded=1;whiteSpace=wrap;html=1;" vertex="1" parent="1">
          <mxGeometry x="107.97" y="1132.5" width="77.5" height="40" as="geometry" />
        </mxCell>
        <mxCell id="Lg2oasvu8VgCZ8ZMKqVV-20" value="" style="edgeStyle=orthogonalEdgeStyle;rounded=0;orthogonalLoop=1;jettySize=auto;html=1;" edge="1" parent="1" source="Lg2oasvu8VgCZ8ZMKqVV-15" target="Lg2oasvu8VgCZ8ZMKqVV-19">
          <mxGeometry relative="1" as="geometry" />
        </mxCell>
        <mxCell id="Lg2oasvu8VgCZ8ZMKqVV-21" value="rerturn Error Code 044&lt;span style=&quot;font-size: medium; text-align: start;&quot;&gt;&lt;/span&gt;" style="rounded=1;whiteSpace=wrap;html=1;" vertex="1" parent="1">
          <mxGeometry x="122.32" y="1347.5" width="77.5" height="40" as="geometry" />
        </mxCell>
        <mxCell id="Lg2oasvu8VgCZ8ZMKqVV-22" value="สร้างข้อมูล ActivityLog&lt;span style=&quot;font-size: medium; text-align: start;&quot;&gt;&lt;/span&gt;" style="rounded=1;whiteSpace=wrap;html=1;" vertex="1" parent="1">
          <mxGeometry x="223.97000000000003" y="1277.5" width="77.5" height="40" as="geometry" />
        </mxCell>
        <mxCell id="Lg2oasvu8VgCZ8ZMKqVV-23" style="edgeStyle=orthogonalEdgeStyle;rounded=0;orthogonalLoop=1;jettySize=auto;html=1;entryX=0.5;entryY=0;entryDx=0;entryDy=0;" edge="1" parent="1" source="Lg2oasvu8VgCZ8ZMKqVV-11" target="Lg2oasvu8VgCZ8ZMKqVV-22">
          <mxGeometry relative="1" as="geometry" />
        </mxCell>
        <mxCell id="Lg2oasvu8VgCZ8ZMKqVV-24" value="ใช่" style="edgeLabel;html=1;align=center;verticalAlign=middle;resizable=0;points=[];" vertex="1" connectable="0" parent="Lg2oasvu8VgCZ8ZMKqVV-23">
          <mxGeometry x="-0.6182" y="-1" relative="1" as="geometry">
            <mxPoint as="offset" />
          </mxGeometry>
        </mxCell>
        <mxCell id="Lg2oasvu8VgCZ8ZMKqVV-25" style="edgeStyle=orthogonalEdgeStyle;rounded=0;orthogonalLoop=1;jettySize=auto;html=1;" edge="1" parent="1" source="Lg2oasvu8VgCZ8ZMKqVV-26" target="Lg2oasvu8VgCZ8ZMKqVV-21">
          <mxGeometry relative="1" as="geometry" />
        </mxCell>
        <mxCell id="Lg2oasvu8VgCZ8ZMKqVV-26" value="บันทึกข้อมูล&lt;span style=&quot;font-size: medium; text-align: start;&quot;&gt;&lt;/span&gt;" style="rounded=1;whiteSpace=wrap;html=1;" vertex="1" parent="1">
          <mxGeometry x="122.32" y="1277.5" width="77.5" height="40" as="geometry" />
        </mxCell>
        <mxCell id="Lg2oasvu8VgCZ8ZMKqVV-27" style="edgeStyle=orthogonalEdgeStyle;rounded=0;orthogonalLoop=1;jettySize=auto;html=1;entryX=1;entryY=0.5;entryDx=0;entryDy=0;" edge="1" parent="1" source="Lg2oasvu8VgCZ8ZMKqVV-22" target="Lg2oasvu8VgCZ8ZMKqVV-26">
          <mxGeometry relative="1" as="geometry" />
        </mxCell>
        <mxCell id="Lg2oasvu8VgCZ8ZMKqVV-28" value="3" style="ellipse;whiteSpace=wrap;html=1;aspect=fixed;" vertex="1" parent="1">
          <mxGeometry x="213.97000000000003" y="1532.5" width="50" height="50" as="geometry" />
        </mxCell>
        <mxCell id="Lg2oasvu8VgCZ8ZMKqVV-29" style="edgeStyle=orthogonalEdgeStyle;rounded=0;orthogonalLoop=1;jettySize=auto;html=1;entryX=0;entryY=0.5;entryDx=0;entryDy=0;" edge="1" parent="1" source="Lg2oasvu8VgCZ8ZMKqVV-14" target="Lg2oasvu8VgCZ8ZMKqVV-28">
          <mxGeometry relative="1" as="geometry">
            <Array as="points">
              <mxPoint x="70.24999999999997" y="1222.5" />
              <mxPoint x="70.24999999999997" y="1477.5" />
              <mxPoint x="130.24999999999997" y="1477.5" />
              <mxPoint x="130.24999999999997" y="1557.5" />
            </Array>
          </mxGeometry>
        </mxCell>
        <mxCell id="Lg2oasvu8VgCZ8ZMKqVV-30" style="edgeStyle=orthogonalEdgeStyle;rounded=0;orthogonalLoop=1;jettySize=auto;html=1;entryX=0;entryY=0;entryDx=0;entryDy=0;" edge="1" parent="1" source="Lg2oasvu8VgCZ8ZMKqVV-21" target="Lg2oasvu8VgCZ8ZMKqVV-28">
          <mxGeometry relative="1" as="geometry" />
        </mxCell>
        <mxCell id="Lg2oasvu8VgCZ8ZMKqVV-31" style="edgeStyle=orthogonalEdgeStyle;rounded=0;orthogonalLoop=1;jettySize=auto;html=1;" edge="1" parent="1" source="Lg2oasvu8VgCZ8ZMKqVV-32">
          <mxGeometry relative="1" as="geometry">
            <mxPoint x="393.87" y="1400.0000000000002" as="targetPoint" />
          </mxGeometry>
        </mxCell>
        <mxCell id="Lg2oasvu8VgCZ8ZMKqVV-32" value="อัปโหลดไฟล์" style="rounded=1;whiteSpace=wrap;html=1;" vertex="1" parent="1">
          <mxGeometry x="293.97" y="1330" width="110" height="42" as="geometry" />
        </mxCell>
        <mxCell id="Lg2oasvu8VgCZ8ZMKqVV-33" style="edgeStyle=orthogonalEdgeStyle;rounded=0;orthogonalLoop=1;jettySize=auto;html=1;" edge="1" parent="1" source="Lg2oasvu8VgCZ8ZMKqVV-11" target="Lg2oasvu8VgCZ8ZMKqVV-32">
          <mxGeometry relative="1" as="geometry">
            <mxPoint x="392.0949999999999" y="1337.5" as="targetPoint" />
          </mxGeometry>
        </mxCell>
        <mxCell id="Lg2oasvu8VgCZ8ZMKqVV-34" value="ไม่" style="edgeLabel;html=1;align=center;verticalAlign=middle;resizable=0;points=[];" vertex="1" connectable="0" parent="Lg2oasvu8VgCZ8ZMKqVV-33">
          <mxGeometry x="-0.6238" y="2" relative="1" as="geometry">
            <mxPoint as="offset" />
          </mxGeometry>
        </mxCell>
        <mxCell id="Lg2oasvu8VgCZ8ZMKqVV-35" value="" style="group" vertex="1" connectable="0" parent="1">
          <mxGeometry x="345.75" y="1510" width="96.25" height="177.5" as="geometry" />
        </mxCell>
        <mxCell id="Lg2oasvu8VgCZ8ZMKqVV-36" value="สร้างข้อมูลหัวข้อ ข้อมูลของการประชุมผู้ถือหุ้น" style="rounded=1;whiteSpace=wrap;html=1;" vertex="1" parent="Lg2oasvu8VgCZ8ZMKqVV-35">
          <mxGeometry x="-5" width="106.25" height="42.5" as="geometry" />
        </mxCell>
        <mxCell id="Lg2oasvu8VgCZ8ZMKqVV-37" value="สร้างข้อมูล ActivityLog&lt;span style=&quot;font-size: medium; text-align: start;&quot;&gt;&lt;/span&gt;" style="rounded=1;whiteSpace=wrap;html=1;" vertex="1" parent="Lg2oasvu8VgCZ8ZMKqVV-35">
          <mxGeometry x="6.25" y="67.5" width="77.5" height="40" as="geometry" />
        </mxCell>
        <mxCell id="Lg2oasvu8VgCZ8ZMKqVV-38" value="" style="edgeStyle=orthogonalEdgeStyle;rounded=0;orthogonalLoop=1;jettySize=auto;html=1;entryX=0.543;entryY=-0.009;entryDx=0;entryDy=0;entryPerimeter=0;" edge="1" parent="Lg2oasvu8VgCZ8ZMKqVV-35" source="Lg2oasvu8VgCZ8ZMKqVV-36" target="Lg2oasvu8VgCZ8ZMKqVV-37">
          <mxGeometry relative="1" as="geometry" />
        </mxCell>
        <mxCell id="Lg2oasvu8VgCZ8ZMKqVV-39" value="บันทึกข้อมูล&lt;span style=&quot;font-size: medium; text-align: start;&quot;&gt;&lt;/span&gt;" style="rounded=1;whiteSpace=wrap;html=1;" vertex="1" parent="Lg2oasvu8VgCZ8ZMKqVV-35">
          <mxGeometry x="6.25" y="137.5" width="77.5" height="40" as="geometry" />
        </mxCell>
        <mxCell id="Lg2oasvu8VgCZ8ZMKqVV-40" value="" style="edgeStyle=orthogonalEdgeStyle;rounded=0;orthogonalLoop=1;jettySize=auto;html=1;" edge="1" parent="Lg2oasvu8VgCZ8ZMKqVV-35" source="Lg2oasvu8VgCZ8ZMKqVV-37" target="Lg2oasvu8VgCZ8ZMKqVV-39">
          <mxGeometry relative="1" as="geometry" />
        </mxCell>
        <mxCell id="Lg2oasvu8VgCZ8ZMKqVV-41" style="edgeStyle=orthogonalEdgeStyle;rounded=0;orthogonalLoop=1;jettySize=auto;html=1;entryX=0;entryY=1;entryDx=0;entryDy=0;" edge="1" parent="1" source="Lg2oasvu8VgCZ8ZMKqVV-45" target="Lg2oasvu8VgCZ8ZMKqVV-7">
          <mxGeometry relative="1" as="geometry">
            <Array as="points">
              <mxPoint x="438.87" y="1433" />
              <mxPoint x="438.87" y="1120" />
              <mxPoint x="447.87" y="1120" />
            </Array>
          </mxGeometry>
        </mxCell>
        <mxCell id="Lg2oasvu8VgCZ8ZMKqVV-42" value="ใช่" style="edgeLabel;html=1;align=center;verticalAlign=middle;resizable=0;points=[];" vertex="1" connectable="0" parent="Lg2oasvu8VgCZ8ZMKqVV-41">
          <mxGeometry x="-0.8996" relative="1" as="geometry">
            <mxPoint as="offset" />
          </mxGeometry>
        </mxCell>
        <mxCell id="Lg2oasvu8VgCZ8ZMKqVV-43" style="edgeStyle=orthogonalEdgeStyle;rounded=0;orthogonalLoop=1;jettySize=auto;html=1;" edge="1" parent="1" source="Lg2oasvu8VgCZ8ZMKqVV-45" target="Lg2oasvu8VgCZ8ZMKqVV-36">
          <mxGeometry relative="1" as="geometry" />
        </mxCell>
        <mxCell id="Lg2oasvu8VgCZ8ZMKqVV-44" value="ไม่" style="edgeLabel;html=1;align=center;verticalAlign=middle;resizable=0;points=[];" vertex="1" connectable="0" parent="Lg2oasvu8VgCZ8ZMKqVV-43">
          <mxGeometry x="-0.1659" relative="1" as="geometry">
            <mxPoint y="2" as="offset" />
          </mxGeometry>
        </mxCell>
        <mxCell id="Lg2oasvu8VgCZ8ZMKqVV-45" value="มีไฟล&lt;br&gt;รูปภาพอีกไหม ?" style="rhombus;whiteSpace=wrap;html=1;" vertex="1" parent="1">
          <mxGeometry x="361.37" y="1400" width="65" height="65" as="geometry" />
        </mxCell>
        <mxCell id="Lg2oasvu8VgCZ8ZMKqVV-46" value="" style="edgeStyle=orthogonalEdgeStyle;rounded=0;orthogonalLoop=1;jettySize=auto;html=1;entryX=0.5;entryY=0;entryDx=0;entryDy=0;" edge="1" parent="1" source="Lg2oasvu8VgCZ8ZMKqVV-39" target="XRapJzvQ2GW_e7HTbM0V-109">
          <mxGeometry relative="1" as="geometry">
            <mxPoint x="613" y="1812.5" as="targetPoint" />
          </mxGeometry>
        </mxCell>
        <mxCell id="Lg2oasvu8VgCZ8ZMKqVV-47" style="edgeStyle=orthogonalEdgeStyle;rounded=0;orthogonalLoop=1;jettySize=auto;html=1;entryX=1;entryY=0.5;entryDx=0;entryDy=0;" edge="1" parent="1" source="Lg2oasvu8VgCZ8ZMKqVV-7" target="Lg2oasvu8VgCZ8ZMKqVV-36">
          <mxGeometry relative="1" as="geometry">
            <Array as="points">
              <mxPoint x="462.87" y="1531" />
            </Array>
          </mxGeometry>
        </mxCell>
        <mxCell id="Lg2oasvu8VgCZ8ZMKqVV-48" value="ไม่" style="edgeLabel;html=1;align=center;verticalAlign=middle;resizable=0;points=[];" vertex="1" connectable="0" parent="Lg2oasvu8VgCZ8ZMKqVV-47">
          <mxGeometry x="-0.6813" y="-1" relative="1" as="geometry">
            <mxPoint as="offset" />
          </mxGeometry>
        </mxCell>
      </root>
    </mxGraphModel>
  </diagram>
  <diagram id="YfyNhHg_bJGHaUY91bY7" name="Page-4">
    <mxGraphModel dx="1687" dy="832" grid="1" gridSize="10" guides="1" tooltips="1" connect="1" arrows="1" fold="1" page="1" pageScale="1" pageWidth="850" pageHeight="1100" math="0" shadow="0">
      <root>
        <mxCell id="0" />
        <mxCell id="1" parent="0" />
        <mxCell id="xyvcQiCK315FLyUi8cwX-1" value="เริ่ม" style="ellipse;whiteSpace=wrap;html=1;" vertex="1" parent="1">
          <mxGeometry x="125" y="70" width="80" height="40" as="geometry" />
        </mxCell>
        <mxCell id="xyvcQiCK315FLyUi8cwX-2" value="ตรวจสอบสิทธิ์การใช้งาน" style="rounded=1;whiteSpace=wrap;html=1;" vertex="1" parent="1">
          <mxGeometry x="95" y="150" width="140" height="30" as="geometry" />
        </mxCell>
        <mxCell id="xyvcQiCK315FLyUi8cwX-3" value="" style="edgeStyle=orthogonalEdgeStyle;rounded=0;orthogonalLoop=1;jettySize=auto;html=1;" edge="1" parent="1" source="xyvcQiCK315FLyUi8cwX-1" target="xyvcQiCK315FLyUi8cwX-2">
          <mxGeometry relative="1" as="geometry" />
        </mxCell>
        <mxCell id="xyvcQiCK315FLyUi8cwX-4" value="มี ?" style="rhombus;whiteSpace=wrap;html=1;" vertex="1" parent="1">
          <mxGeometry x="135" y="210" width="60" height="60" as="geometry" />
        </mxCell>
        <mxCell id="xyvcQiCK315FLyUi8cwX-5" value="" style="edgeStyle=orthogonalEdgeStyle;rounded=0;orthogonalLoop=1;jettySize=auto;html=1;" edge="1" parent="1" source="xyvcQiCK315FLyUi8cwX-2" target="xyvcQiCK315FLyUi8cwX-4">
          <mxGeometry relative="1" as="geometry" />
        </mxCell>
        <mxCell id="xyvcQiCK315FLyUi8cwX-6" style="edgeStyle=orthogonalEdgeStyle;rounded=0;orthogonalLoop=1;jettySize=auto;html=1;entryX=-0.022;entryY=0.676;entryDx=0;entryDy=0;entryPerimeter=0;" edge="1" parent="1" source="xyvcQiCK315FLyUi8cwX-4" target="xyvcQiCK315FLyUi8cwX-19">
          <mxGeometry relative="1" as="geometry">
            <Array as="points">
              <mxPoint x="165" y="746" />
            </Array>
            <mxPoint x="320" y="780" as="targetPoint" />
          </mxGeometry>
        </mxCell>
        <mxCell id="xyvcQiCK315FLyUi8cwX-7" value="ไม่" style="edgeLabel;html=1;align=center;verticalAlign=middle;resizable=0;points=[];" vertex="1" connectable="0" parent="xyvcQiCK315FLyUi8cwX-6">
          <mxGeometry x="-0.8925" y="1" relative="1" as="geometry">
            <mxPoint as="offset" />
          </mxGeometry>
        </mxCell>
        <mxCell id="xyvcQiCK315FLyUi8cwX-8" value="ตรวจสอบ Account &lt;br&gt;สถานะการใช้งาน" style="rounded=1;whiteSpace=wrap;html=1;" vertex="1" parent="1">
          <mxGeometry x="311.35" y="219" width="170" height="40" as="geometry" />
        </mxCell>
        <mxCell id="xyvcQiCK315FLyUi8cwX-9" value="" style="edgeStyle=orthogonalEdgeStyle;rounded=0;orthogonalLoop=1;jettySize=auto;html=1;" edge="1" parent="1" source="xyvcQiCK315FLyUi8cwX-4" target="xyvcQiCK315FLyUi8cwX-8">
          <mxGeometry relative="1" as="geometry">
            <Array as="points">
              <mxPoint x="275" y="240" />
              <mxPoint x="275" y="240" />
            </Array>
          </mxGeometry>
        </mxCell>
        <mxCell id="xyvcQiCK315FLyUi8cwX-10" value="ใช่" style="edgeLabel;html=1;align=center;verticalAlign=middle;resizable=0;points=[];" vertex="1" connectable="0" parent="xyvcQiCK315FLyUi8cwX-9">
          <mxGeometry x="-0.7797" y="-1" relative="1" as="geometry">
            <mxPoint as="offset" />
          </mxGeometry>
        </mxCell>
        <mxCell id="xyvcQiCK315FLyUi8cwX-11" value="มีใน&lt;br&gt;ระบบ &lt;br&gt;?" style="rhombus;whiteSpace=wrap;html=1;" vertex="1" parent="1">
          <mxGeometry x="389" y="298" width="75" height="70" as="geometry" />
        </mxCell>
        <mxCell id="xyvcQiCK315FLyUi8cwX-12" value="" style="edgeStyle=orthogonalEdgeStyle;rounded=0;orthogonalLoop=1;jettySize=auto;html=1;" edge="1" parent="1" source="xyvcQiCK315FLyUi8cwX-8" target="xyvcQiCK315FLyUi8cwX-11">
          <mxGeometry relative="1" as="geometry" />
        </mxCell>
        <mxCell id="xyvcQiCK315FLyUi8cwX-13" value="status&lt;br style=&quot;border-color: var(--border-color);&quot;&gt;= 1 ?" style="rhombus;whiteSpace=wrap;html=1;" vertex="1" parent="1">
          <mxGeometry x="417" y="418" width="60" height="60" as="geometry" />
        </mxCell>
        <mxCell id="xyvcQiCK315FLyUi8cwX-14" value="" style="edgeStyle=orthogonalEdgeStyle;rounded=0;orthogonalLoop=1;jettySize=auto;html=1;" edge="1" parent="1" source="xyvcQiCK315FLyUi8cwX-11" target="xyvcQiCK315FLyUi8cwX-13">
          <mxGeometry relative="1" as="geometry" />
        </mxCell>
        <mxCell id="xyvcQiCK315FLyUi8cwX-15" value="ใช่" style="edgeLabel;html=1;align=center;verticalAlign=middle;resizable=0;points=[];" vertex="1" connectable="0" parent="xyvcQiCK315FLyUi8cwX-14">
          <mxGeometry x="-0.3254" y="2" relative="1" as="geometry">
            <mxPoint x="-2" as="offset" />
          </mxGeometry>
        </mxCell>
        <mxCell id="xyvcQiCK315FLyUi8cwX-16" value="Locked&lt;br style=&quot;border-color: var(--border-color);&quot;&gt;= 1 ?&amp;nbsp;" style="rhombus;whiteSpace=wrap;html=1;" vertex="1" parent="1">
          <mxGeometry x="417.75" y="548" width="60" height="60" as="geometry" />
        </mxCell>
        <mxCell id="xyvcQiCK315FLyUi8cwX-17" value="" style="edgeStyle=orthogonalEdgeStyle;rounded=0;orthogonalLoop=1;jettySize=auto;html=1;" edge="1" parent="1" source="xyvcQiCK315FLyUi8cwX-13" target="xyvcQiCK315FLyUi8cwX-16">
          <mxGeometry relative="1" as="geometry" />
        </mxCell>
        <mxCell id="xyvcQiCK315FLyUi8cwX-18" value="ไม่" style="edgeLabel;html=1;align=center;verticalAlign=middle;resizable=0;points=[];" vertex="1" connectable="0" parent="xyvcQiCK315FLyUi8cwX-17">
          <mxGeometry x="-0.3745" relative="1" as="geometry">
            <mxPoint as="offset" />
          </mxGeometry>
        </mxCell>
        <mxCell id="xyvcQiCK315FLyUi8cwX-19" value="1" style="ellipse;whiteSpace=wrap;html=1;aspect=fixed;" vertex="1" parent="1">
          <mxGeometry x="247.5" y="712" width="50" height="50" as="geometry" />
        </mxCell>
        <mxCell id="xyvcQiCK315FLyUi8cwX-20" style="edgeStyle=orthogonalEdgeStyle;rounded=0;orthogonalLoop=1;jettySize=auto;html=1;exitX=0.492;exitY=0.949;exitDx=0;exitDy=0;exitPerimeter=0;" edge="1" parent="1" source="xyvcQiCK315FLyUi8cwX-21" target="xyvcQiCK315FLyUi8cwX-19">
          <mxGeometry relative="1" as="geometry">
            <Array as="points">
              <mxPoint x="216" y="426" />
              <mxPoint x="200" y="426" />
              <mxPoint x="200" y="730" />
            </Array>
          </mxGeometry>
        </mxCell>
        <mxCell id="xyvcQiCK315FLyUi8cwX-21" value="rerturn Error Code&amp;nbsp;001&lt;span style=&quot;font-size: medium; text-align: start;&quot;&gt;&lt;/span&gt;" style="rounded=1;whiteSpace=wrap;html=1;" vertex="1" parent="1">
          <mxGeometry x="177.5" y="378" width="77.5" height="40" as="geometry" />
        </mxCell>
        <mxCell id="xyvcQiCK315FLyUi8cwX-22" style="edgeStyle=orthogonalEdgeStyle;rounded=0;orthogonalLoop=1;jettySize=auto;html=1;entryX=1;entryY=1;entryDx=0;entryDy=0;" edge="1" parent="1" source="xyvcQiCK315FLyUi8cwX-23" target="xyvcQiCK315FLyUi8cwX-19">
          <mxGeometry relative="1" as="geometry">
            <Array as="points">
              <mxPoint x="352" y="755" />
              <mxPoint x="294" y="755" />
            </Array>
          </mxGeometry>
        </mxCell>
        <mxCell id="xyvcQiCK315FLyUi8cwX-23" value="rerturn Error Code&amp;nbsp;011&lt;span style=&quot;font-size: medium; text-align: start;&quot;&gt;&lt;/span&gt;" style="rounded=1;whiteSpace=wrap;html=1;" vertex="1" parent="1">
          <mxGeometry x="313.5" y="696" width="77.5" height="40" as="geometry" />
        </mxCell>
        <mxCell id="xyvcQiCK315FLyUi8cwX-24" value="" style="edgeStyle=orthogonalEdgeStyle;rounded=0;orthogonalLoop=1;jettySize=auto;html=1;entryX=0.467;entryY=0.027;entryDx=0;entryDy=0;entryPerimeter=0;" edge="1" parent="1" source="xyvcQiCK315FLyUi8cwX-68" target="xyvcQiCK315FLyUi8cwX-70">
          <mxGeometry relative="1" as="geometry" />
        </mxCell>
        <mxCell id="xyvcQiCK315FLyUi8cwX-25" style="edgeStyle=orthogonalEdgeStyle;rounded=0;orthogonalLoop=1;jettySize=auto;html=1;" edge="1" parent="1" source="xyvcQiCK315FLyUi8cwX-26" target="xyvcQiCK315FLyUi8cwX-19">
          <mxGeometry relative="1" as="geometry">
            <mxPoint x="240" y="680" as="targetPoint" />
            <Array as="points">
              <mxPoint x="259" y="710" />
              <mxPoint x="259" y="710" />
            </Array>
          </mxGeometry>
        </mxCell>
        <mxCell id="xyvcQiCK315FLyUi8cwX-26" value="rerturn Error Code&amp;nbsp;004&lt;span style=&quot;font-size: medium; text-align: start;&quot;&gt;&lt;/span&gt;" style="rounded=1;whiteSpace=wrap;html=1;" vertex="1" parent="1">
          <mxGeometry x="220" y="518" width="77.5" height="40" as="geometry" />
        </mxCell>
        <mxCell id="xyvcQiCK315FLyUi8cwX-27" value="" style="edgeStyle=orthogonalEdgeStyle;rounded=0;orthogonalLoop=1;jettySize=auto;html=1;" edge="1" parent="1" source="xyvcQiCK315FLyUi8cwX-13" target="xyvcQiCK315FLyUi8cwX-63">
          <mxGeometry relative="1" as="geometry">
            <mxPoint x="350" y="430" as="targetPoint" />
          </mxGeometry>
        </mxCell>
        <mxCell id="xyvcQiCK315FLyUi8cwX-28" value="ใช่" style="edgeLabel;html=1;align=center;verticalAlign=middle;resizable=0;points=[];" vertex="1" connectable="0" parent="xyvcQiCK315FLyUi8cwX-27">
          <mxGeometry x="-0.4608" y="2" relative="1" as="geometry">
            <mxPoint as="offset" />
          </mxGeometry>
        </mxCell>
        <mxCell id="xyvcQiCK315FLyUi8cwX-29" value="" style="edgeStyle=orthogonalEdgeStyle;rounded=0;orthogonalLoop=1;jettySize=auto;html=1;entryX=0.1;entryY=0.5;entryDx=0;entryDy=0;entryPerimeter=0;" edge="1" parent="1" source="xyvcQiCK315FLyUi8cwX-16" target="xyvcQiCK315FLyUi8cwX-32">
          <mxGeometry relative="1" as="geometry">
            <mxPoint x="469" y="578" as="targetPoint" />
            <Array as="points">
              <mxPoint x="510" y="578" />
              <mxPoint x="510" y="404" />
            </Array>
          </mxGeometry>
        </mxCell>
        <mxCell id="xyvcQiCK315FLyUi8cwX-30" value="" style="edgeStyle=orthogonalEdgeStyle;rounded=0;orthogonalLoop=1;jettySize=auto;html=1;" edge="1" parent="1" source="xyvcQiCK315FLyUi8cwX-32" target="xyvcQiCK315FLyUi8cwX-33">
          <mxGeometry relative="1" as="geometry">
            <mxPoint x="585" y="578" as="targetPoint" />
            <Array as="points">
              <mxPoint x="640" y="404" />
            </Array>
          </mxGeometry>
        </mxCell>
        <mxCell id="xyvcQiCK315FLyUi8cwX-31" value="ไม่" style="edgeLabel;html=1;align=center;verticalAlign=middle;resizable=0;points=[];" vertex="1" connectable="0" parent="xyvcQiCK315FLyUi8cwX-30">
          <mxGeometry x="-0.3115" y="3" relative="1" as="geometry">
            <mxPoint as="offset" />
          </mxGeometry>
        </mxCell>
        <mxCell id="xyvcQiCK315FLyUi8cwX-32" value="Super&lt;br&gt;Admin ?" style="rhombus;whiteSpace=wrap;html=1;" vertex="1" parent="1">
          <mxGeometry x="526.25" y="368" width="66" height="72" as="geometry" />
        </mxCell>
        <mxCell id="xyvcQiCK315FLyUi8cwX-33" value="ตรวจสอบสิทธิ์การใช้งาน Company นี้ไหม&lt;span style=&quot;font-size: medium; text-align: start;&quot;&gt;&lt;/span&gt;" style="rounded=1;whiteSpace=wrap;html=1;" vertex="1" parent="1">
          <mxGeometry x="585" y="558" width="110" height="42" as="geometry" />
        </mxCell>
        <mxCell id="xyvcQiCK315FLyUi8cwX-34" value="มี ?" style="rhombus;whiteSpace=wrap;html=1;" vertex="1" parent="1">
          <mxGeometry x="607" y="640" width="66" height="72" as="geometry" />
        </mxCell>
        <mxCell id="xyvcQiCK315FLyUi8cwX-35" value="" style="edgeStyle=orthogonalEdgeStyle;rounded=0;orthogonalLoop=1;jettySize=auto;html=1;" edge="1" parent="1" source="xyvcQiCK315FLyUi8cwX-33" target="xyvcQiCK315FLyUi8cwX-34">
          <mxGeometry relative="1" as="geometry" />
        </mxCell>
        <mxCell id="xyvcQiCK315FLyUi8cwX-36" value="Company &lt;br&gt;มีในระบบ&lt;br&gt;ไหม ?" style="rhombus;whiteSpace=wrap;html=1;" vertex="1" parent="1">
          <mxGeometry x="595" y="770" width="90" height="80" as="geometry" />
        </mxCell>
        <mxCell id="xyvcQiCK315FLyUi8cwX-37" value="" style="edgeStyle=orthogonalEdgeStyle;rounded=0;orthogonalLoop=1;jettySize=auto;html=1;" edge="1" parent="1" source="xyvcQiCK315FLyUi8cwX-34" target="xyvcQiCK315FLyUi8cwX-36">
          <mxGeometry relative="1" as="geometry" />
        </mxCell>
        <mxCell id="xyvcQiCK315FLyUi8cwX-38" value="ใช่" style="edgeLabel;html=1;align=center;verticalAlign=middle;resizable=0;points=[];" vertex="1" connectable="0" parent="xyvcQiCK315FLyUi8cwX-37">
          <mxGeometry x="-0.2859" relative="1" as="geometry">
            <mxPoint as="offset" />
          </mxGeometry>
        </mxCell>
        <mxCell id="xyvcQiCK315FLyUi8cwX-39" style="edgeStyle=orthogonalEdgeStyle;rounded=0;orthogonalLoop=1;jettySize=auto;html=1;" edge="1" parent="1">
          <mxGeometry relative="1" as="geometry">
            <mxPoint x="787.5" y="676" as="sourcePoint" />
            <mxPoint x="810" y="676" as="targetPoint" />
          </mxGeometry>
        </mxCell>
        <mxCell id="xyvcQiCK315FLyUi8cwX-40" style="edgeStyle=orthogonalEdgeStyle;rounded=0;orthogonalLoop=1;jettySize=auto;html=1;" edge="1" parent="1" source="xyvcQiCK315FLyUi8cwX-34">
          <mxGeometry relative="1" as="geometry">
            <mxPoint x="710" y="676" as="targetPoint" />
          </mxGeometry>
        </mxCell>
        <mxCell id="xyvcQiCK315FLyUi8cwX-41" value="ไม่" style="edgeLabel;html=1;align=center;verticalAlign=middle;resizable=0;points=[];" vertex="1" connectable="0" parent="xyvcQiCK315FLyUi8cwX-40">
          <mxGeometry x="-0.0865" y="2" relative="1" as="geometry">
            <mxPoint as="offset" />
          </mxGeometry>
        </mxCell>
        <mxCell id="xyvcQiCK315FLyUi8cwX-42" style="edgeStyle=orthogonalEdgeStyle;rounded=0;orthogonalLoop=1;jettySize=auto;html=1;entryX=1;entryY=0.5;entryDx=0;entryDy=0;" edge="1" parent="1" source="xyvcQiCK315FLyUi8cwX-44" target="xyvcQiCK315FLyUi8cwX-86">
          <mxGeometry relative="1" as="geometry" />
        </mxCell>
        <mxCell id="xyvcQiCK315FLyUi8cwX-43" value="ใช่" style="edgeLabel;html=1;align=center;verticalAlign=middle;resizable=0;points=[];" vertex="1" connectable="0" parent="xyvcQiCK315FLyUi8cwX-42">
          <mxGeometry x="-0.0994" relative="1" as="geometry">
            <mxPoint as="offset" />
          </mxGeometry>
        </mxCell>
        <mxCell id="xyvcQiCK315FLyUi8cwX-44" value="Company &lt;br&gt;Active ?" style="rhombus;whiteSpace=wrap;html=1;" vertex="1" parent="1">
          <mxGeometry x="595" y="890" width="90" height="80" as="geometry" />
        </mxCell>
        <mxCell id="xyvcQiCK315FLyUi8cwX-45" value="ใช่" style="edgeStyle=orthogonalEdgeStyle;rounded=0;orthogonalLoop=1;jettySize=auto;html=1;" edge="1" parent="1" source="xyvcQiCK315FLyUi8cwX-36" target="xyvcQiCK315FLyUi8cwX-44">
          <mxGeometry relative="1" as="geometry" />
        </mxCell>
        <mxCell id="xyvcQiCK315FLyUi8cwX-46" value="" style="edgeStyle=orthogonalEdgeStyle;rounded=0;orthogonalLoop=1;jettySize=auto;html=1;" edge="1" parent="1" source="xyvcQiCK315FLyUi8cwX-36">
          <mxGeometry relative="1" as="geometry">
            <mxPoint x="735" y="810" as="targetPoint" />
          </mxGeometry>
        </mxCell>
        <mxCell id="xyvcQiCK315FLyUi8cwX-47" value="ไม่" style="edgeLabel;html=1;align=center;verticalAlign=middle;resizable=0;points=[];" vertex="1" connectable="0" parent="xyvcQiCK315FLyUi8cwX-46">
          <mxGeometry x="-0.1127" relative="1" as="geometry">
            <mxPoint as="offset" />
          </mxGeometry>
        </mxCell>
        <mxCell id="xyvcQiCK315FLyUi8cwX-48" value="" style="edgeStyle=orthogonalEdgeStyle;rounded=0;orthogonalLoop=1;jettySize=auto;html=1;" edge="1" parent="1" source="xyvcQiCK315FLyUi8cwX-44" target="xyvcQiCK315FLyUi8cwX-83">
          <mxGeometry relative="1" as="geometry">
            <mxPoint x="735" y="930" as="targetPoint" />
          </mxGeometry>
        </mxCell>
        <mxCell id="xyvcQiCK315FLyUi8cwX-49" value="ไม่" style="edgeLabel;html=1;align=center;verticalAlign=middle;resizable=0;points=[];" vertex="1" connectable="0" parent="xyvcQiCK315FLyUi8cwX-48">
          <mxGeometry x="-0.2152" y="2" relative="1" as="geometry">
            <mxPoint as="offset" />
          </mxGeometry>
        </mxCell>
        <mxCell id="xyvcQiCK315FLyUi8cwX-50" style="edgeStyle=orthogonalEdgeStyle;rounded=0;orthogonalLoop=1;jettySize=auto;html=1;entryX=0.5;entryY=0;entryDx=0;entryDy=0;" edge="1" parent="1" source="xyvcQiCK315FLyUi8cwX-32" target="xyvcQiCK315FLyUi8cwX-86">
          <mxGeometry relative="1" as="geometry">
            <mxPoint x="502" y="910" as="targetPoint" />
            <Array as="points">
              <mxPoint x="559" y="680" />
              <mxPoint x="472" y="680" />
            </Array>
          </mxGeometry>
        </mxCell>
        <mxCell id="xyvcQiCK315FLyUi8cwX-51" value="ใช่" style="edgeLabel;html=1;align=center;verticalAlign=middle;resizable=0;points=[];" vertex="1" connectable="0" parent="xyvcQiCK315FLyUi8cwX-50">
          <mxGeometry x="-0.3215" y="2" relative="1" as="geometry">
            <mxPoint as="offset" />
          </mxGeometry>
        </mxCell>
        <mxCell id="xyvcQiCK315FLyUi8cwX-52" style="edgeStyle=orthogonalEdgeStyle;rounded=0;orthogonalLoop=1;jettySize=auto;html=1;entryX=1;entryY=0.5;entryDx=0;entryDy=0;" edge="1" parent="1" source="xyvcQiCK315FLyUi8cwX-53" target="xyvcQiCK315FLyUi8cwX-120">
          <mxGeometry relative="1" as="geometry" />
        </mxCell>
        <mxCell id="xyvcQiCK315FLyUi8cwX-53" value="2" style="ellipse;whiteSpace=wrap;html=1;aspect=fixed;" vertex="1" parent="1">
          <mxGeometry x="748.75" y="1020" width="50" height="50" as="geometry" />
        </mxCell>
        <mxCell id="xyvcQiCK315FLyUi8cwX-54" style="edgeStyle=orthogonalEdgeStyle;rounded=0;orthogonalLoop=1;jettySize=auto;html=1;entryX=1;entryY=0.5;entryDx=0;entryDy=0;" edge="1" parent="1" source="xyvcQiCK315FLyUi8cwX-73" target="xyvcQiCK315FLyUi8cwX-53">
          <mxGeometry relative="1" as="geometry">
            <mxPoint x="835" y="830" as="targetPoint" />
            <Array as="points">
              <mxPoint x="960" y="742" />
              <mxPoint x="960" y="1045" />
            </Array>
            <mxPoint x="850.0285714285715" y="696" as="sourcePoint" />
          </mxGeometry>
        </mxCell>
        <mxCell id="xyvcQiCK315FLyUi8cwX-55" style="edgeStyle=orthogonalEdgeStyle;rounded=0;orthogonalLoop=1;jettySize=auto;html=1;entryX=0;entryY=0.5;entryDx=0;entryDy=0;" edge="1" parent="1" target="xyvcQiCK315FLyUi8cwX-79">
          <mxGeometry relative="1" as="geometry">
            <Array as="points">
              <mxPoint x="830" y="810" />
              <mxPoint x="830" y="810" />
            </Array>
            <mxPoint x="812.5" y="810.037037037037" as="sourcePoint" />
          </mxGeometry>
        </mxCell>
        <mxCell id="xyvcQiCK315FLyUi8cwX-56" value="" style="edgeStyle=orthogonalEdgeStyle;rounded=0;orthogonalLoop=1;jettySize=auto;html=1;entryX=0.5;entryY=0;entryDx=0;entryDy=0;" edge="1" parent="1" source="xyvcQiCK315FLyUi8cwX-57" target="xyvcQiCK315FLyUi8cwX-21">
          <mxGeometry relative="1" as="geometry" />
        </mxCell>
        <mxCell id="xyvcQiCK315FLyUi8cwX-57" value="บันทึกข้อมูล&lt;span style=&quot;font-size: medium; text-align: start;&quot;&gt;&lt;/span&gt;" style="rounded=1;whiteSpace=wrap;html=1;" vertex="1" parent="1">
          <mxGeometry x="177.5" y="313" width="77.5" height="40" as="geometry" />
        </mxCell>
        <mxCell id="xyvcQiCK315FLyUi8cwX-58" value="" style="edgeStyle=orthogonalEdgeStyle;rounded=0;orthogonalLoop=1;jettySize=auto;html=1;" edge="1" parent="1" source="xyvcQiCK315FLyUi8cwX-11" target="xyvcQiCK315FLyUi8cwX-61">
          <mxGeometry relative="1" as="geometry">
            <mxPoint x="209" y="388" as="targetPoint" />
            <mxPoint x="359" y="333" as="sourcePoint" />
          </mxGeometry>
        </mxCell>
        <mxCell id="xyvcQiCK315FLyUi8cwX-59" value="ไม่" style="edgeLabel;html=1;align=center;verticalAlign=middle;resizable=0;points=[];" vertex="1" connectable="0" parent="xyvcQiCK315FLyUi8cwX-58">
          <mxGeometry x="-0.6573" y="2" relative="1" as="geometry">
            <mxPoint as="offset" />
          </mxGeometry>
        </mxCell>
        <mxCell id="xyvcQiCK315FLyUi8cwX-60" style="edgeStyle=orthogonalEdgeStyle;rounded=0;orthogonalLoop=1;jettySize=auto;html=1;" edge="1" parent="1" source="xyvcQiCK315FLyUi8cwX-61" target="xyvcQiCK315FLyUi8cwX-57">
          <mxGeometry relative="1" as="geometry" />
        </mxCell>
        <mxCell id="xyvcQiCK315FLyUi8cwX-61" value="สร้างข้อมูล ActivityLog&lt;span style=&quot;font-size: medium; text-align: start;&quot;&gt;&lt;/span&gt;" style="rounded=1;whiteSpace=wrap;html=1;" vertex="1" parent="1">
          <mxGeometry x="280" y="313" width="77.5" height="40" as="geometry" />
        </mxCell>
        <mxCell id="xyvcQiCK315FLyUi8cwX-62" style="edgeStyle=orthogonalEdgeStyle;rounded=0;orthogonalLoop=1;jettySize=auto;html=1;" edge="1" parent="1" source="xyvcQiCK315FLyUi8cwX-63" target="xyvcQiCK315FLyUi8cwX-65">
          <mxGeometry relative="1" as="geometry" />
        </mxCell>
        <mxCell id="xyvcQiCK315FLyUi8cwX-63" value="สร้างข้อมูล ActivityLog&lt;span style=&quot;font-size: medium; text-align: start;&quot;&gt;&lt;/span&gt;" style="rounded=1;whiteSpace=wrap;html=1;" vertex="1" parent="1">
          <mxGeometry x="311.35" y="428" width="77.5" height="40" as="geometry" />
        </mxCell>
        <mxCell id="xyvcQiCK315FLyUi8cwX-64" style="edgeStyle=orthogonalEdgeStyle;rounded=0;orthogonalLoop=1;jettySize=auto;html=1;entryX=0.5;entryY=0;entryDx=0;entryDy=0;" edge="1" parent="1" source="xyvcQiCK315FLyUi8cwX-65" target="xyvcQiCK315FLyUi8cwX-26">
          <mxGeometry relative="1" as="geometry">
            <Array as="points">
              <mxPoint x="244" y="488" />
            </Array>
          </mxGeometry>
        </mxCell>
        <mxCell id="xyvcQiCK315FLyUi8cwX-65" value="บันทึกข้อมูล&lt;span style=&quot;font-size: medium; text-align: start;&quot;&gt;&lt;/span&gt;" style="rounded=1;whiteSpace=wrap;html=1;" vertex="1" parent="1">
          <mxGeometry x="220" y="428" width="77.5" height="40" as="geometry" />
        </mxCell>
        <mxCell id="xyvcQiCK315FLyUi8cwX-66" value="" style="edgeStyle=orthogonalEdgeStyle;rounded=0;orthogonalLoop=1;jettySize=auto;html=1;" edge="1" parent="1" source="xyvcQiCK315FLyUi8cwX-16" target="xyvcQiCK315FLyUi8cwX-68">
          <mxGeometry relative="1" as="geometry">
            <mxPoint x="418" y="578" as="sourcePoint" />
            <mxPoint x="378" y="635" as="targetPoint" />
          </mxGeometry>
        </mxCell>
        <mxCell id="xyvcQiCK315FLyUi8cwX-67" value="ใช่" style="edgeLabel;html=1;align=center;verticalAlign=middle;resizable=0;points=[];" vertex="1" connectable="0" parent="xyvcQiCK315FLyUi8cwX-66">
          <mxGeometry x="-0.4608" y="1" relative="1" as="geometry">
            <mxPoint as="offset" />
          </mxGeometry>
        </mxCell>
        <mxCell id="xyvcQiCK315FLyUi8cwX-68" value="สร้างข้อมูล ActivityLog&lt;span style=&quot;font-size: medium; text-align: start;&quot;&gt;&lt;/span&gt;" style="rounded=1;whiteSpace=wrap;html=1;" vertex="1" parent="1">
          <mxGeometry x="311.35" y="558" width="77.5" height="40" as="geometry" />
        </mxCell>
        <mxCell id="xyvcQiCK315FLyUi8cwX-69" value="" style="edgeStyle=orthogonalEdgeStyle;rounded=0;orthogonalLoop=1;jettySize=auto;html=1;" edge="1" parent="1" source="xyvcQiCK315FLyUi8cwX-70" target="xyvcQiCK315FLyUi8cwX-23">
          <mxGeometry relative="1" as="geometry" />
        </mxCell>
        <mxCell id="xyvcQiCK315FLyUi8cwX-70" value="บันทึกข้อมูล&lt;span style=&quot;font-size: medium; text-align: start;&quot;&gt;&lt;/span&gt;" style="rounded=1;whiteSpace=wrap;html=1;" vertex="1" parent="1">
          <mxGeometry x="313.5" y="630" width="77.5" height="40" as="geometry" />
        </mxCell>
        <mxCell id="xyvcQiCK315FLyUi8cwX-71" style="edgeStyle=orthogonalEdgeStyle;rounded=0;orthogonalLoop=1;jettySize=auto;html=1;entryX=0.5;entryY=0;entryDx=0;entryDy=0;" edge="1" parent="1" source="xyvcQiCK315FLyUi8cwX-72" target="xyvcQiCK315FLyUi8cwX-73">
          <mxGeometry relative="1" as="geometry" />
        </mxCell>
        <mxCell id="xyvcQiCK315FLyUi8cwX-72" value="บันทึกข้อมูล" style="rounded=1;whiteSpace=wrap;html=1;" vertex="1" parent="1">
          <mxGeometry x="810" y="656" width="77.5" height="40" as="geometry" />
        </mxCell>
        <mxCell id="xyvcQiCK315FLyUi8cwX-73" value="rerturn Error Code&amp;nbsp;002&lt;span style=&quot;font-size: medium; text-align: start;&quot;&gt;&lt;/span&gt;" style="rounded=1;whiteSpace=wrap;html=1;" vertex="1" parent="1">
          <mxGeometry x="810" y="722" width="77.5" height="40" as="geometry" />
        </mxCell>
        <mxCell id="xyvcQiCK315FLyUi8cwX-74" value="สร้างข้อมูล ActivityLog&lt;span style=&quot;font-size: medium; text-align: start;&quot;&gt;&lt;/span&gt;" style="rounded=1;whiteSpace=wrap;html=1;" vertex="1" parent="1">
          <mxGeometry x="710" y="656" width="77.5" height="40" as="geometry" />
        </mxCell>
        <mxCell id="xyvcQiCK315FLyUi8cwX-75" style="edgeStyle=orthogonalEdgeStyle;rounded=0;orthogonalLoop=1;jettySize=auto;html=1;" edge="1" parent="1" source="xyvcQiCK315FLyUi8cwX-76">
          <mxGeometry relative="1" as="geometry">
            <mxPoint x="960" y="870" as="targetPoint" />
          </mxGeometry>
        </mxCell>
        <mxCell id="xyvcQiCK315FLyUi8cwX-76" value="rerturn Error Code&amp;nbsp;007&lt;span style=&quot;font-size: medium; text-align: start;&quot;&gt;&lt;/span&gt;" style="rounded=1;whiteSpace=wrap;html=1;" vertex="1" parent="1">
          <mxGeometry x="840" y="850" width="77.5" height="40" as="geometry" />
        </mxCell>
        <mxCell id="xyvcQiCK315FLyUi8cwX-77" value="สร้างข้อมูล ActivityLog&lt;span style=&quot;font-size: medium; text-align: start;&quot;&gt;&lt;/span&gt;" style="rounded=1;whiteSpace=wrap;html=1;" vertex="1" parent="1">
          <mxGeometry x="735" y="790" width="77.5" height="40" as="geometry" />
        </mxCell>
        <mxCell id="xyvcQiCK315FLyUi8cwX-78" style="edgeStyle=orthogonalEdgeStyle;rounded=0;orthogonalLoop=1;jettySize=auto;html=1;" edge="1" parent="1" source="xyvcQiCK315FLyUi8cwX-79" target="xyvcQiCK315FLyUi8cwX-76">
          <mxGeometry relative="1" as="geometry" />
        </mxCell>
        <mxCell id="xyvcQiCK315FLyUi8cwX-79" value="บันทึกข้อมูล" style="rounded=1;whiteSpace=wrap;html=1;" vertex="1" parent="1">
          <mxGeometry x="840" y="790" width="77.5" height="40" as="geometry" />
        </mxCell>
        <mxCell id="xyvcQiCK315FLyUi8cwX-80" style="edgeStyle=orthogonalEdgeStyle;rounded=0;orthogonalLoop=1;jettySize=auto;html=1;" edge="1" parent="1" source="xyvcQiCK315FLyUi8cwX-81" target="xyvcQiCK315FLyUi8cwX-53">
          <mxGeometry relative="1" as="geometry">
            <mxPoint x="879" y="1040" as="targetPoint" />
          </mxGeometry>
        </mxCell>
        <mxCell id="xyvcQiCK315FLyUi8cwX-81" value="rerturn Error Code&amp;nbsp;051&lt;span style=&quot;font-size: medium; text-align: start;&quot;&gt;&lt;/span&gt;" style="rounded=1;whiteSpace=wrap;html=1;" vertex="1" parent="1">
          <mxGeometry x="840" y="970" width="77.5" height="40" as="geometry" />
        </mxCell>
        <mxCell id="xyvcQiCK315FLyUi8cwX-82" style="edgeStyle=orthogonalEdgeStyle;rounded=0;orthogonalLoop=1;jettySize=auto;html=1;entryX=-0.036;entryY=0.462;entryDx=0;entryDy=0;entryPerimeter=0;" edge="1" parent="1" source="xyvcQiCK315FLyUi8cwX-83" target="xyvcQiCK315FLyUi8cwX-85">
          <mxGeometry relative="1" as="geometry" />
        </mxCell>
        <mxCell id="xyvcQiCK315FLyUi8cwX-83" value="สร้างข้อมูล ActivityLog&lt;span style=&quot;font-size: medium; text-align: start;&quot;&gt;&lt;/span&gt;" style="rounded=1;whiteSpace=wrap;html=1;" vertex="1" parent="1">
          <mxGeometry x="732.5" y="910" width="77.5" height="40" as="geometry" />
        </mxCell>
        <mxCell id="xyvcQiCK315FLyUi8cwX-84" style="edgeStyle=orthogonalEdgeStyle;rounded=0;orthogonalLoop=1;jettySize=auto;html=1;" edge="1" parent="1" source="xyvcQiCK315FLyUi8cwX-85" target="xyvcQiCK315FLyUi8cwX-81">
          <mxGeometry relative="1" as="geometry" />
        </mxCell>
        <mxCell id="xyvcQiCK315FLyUi8cwX-85" value="บันทึกข้อมูล" style="rounded=1;whiteSpace=wrap;html=1;" vertex="1" parent="1">
          <mxGeometry x="840" y="910" width="77.5" height="40" as="geometry" />
        </mxCell>
        <mxCell id="xyvcQiCK315FLyUi8cwX-86" value="ดึงข้อมูลหัวข้อ ข้อมูลของการประชุมผู้ถือหุ้น" style="rounded=1;whiteSpace=wrap;html=1;" vertex="1" parent="1">
          <mxGeometry x="412" y="760" width="120" height="40" as="geometry" />
        </mxCell>
        <mxCell id="xyvcQiCK315FLyUi8cwX-87" style="edgeStyle=orthogonalEdgeStyle;rounded=0;orthogonalLoop=1;jettySize=auto;html=1;" edge="1" parent="1" source="xyvcQiCK315FLyUi8cwX-88" target="xyvcQiCK315FLyUi8cwX-107">
          <mxGeometry relative="1" as="geometry">
            <mxPoint x="472" y="950" as="targetPoint" />
          </mxGeometry>
        </mxCell>
        <mxCell id="xyvcQiCK315FLyUi8cwX-88" value="มี?" style="rhombus;whiteSpace=wrap;html=1;" vertex="1" parent="1">
          <mxGeometry x="447.75" y="830" width="48.5" height="40" as="geometry" />
        </mxCell>
        <mxCell id="xyvcQiCK315FLyUi8cwX-89" value="" style="edgeStyle=orthogonalEdgeStyle;rounded=0;orthogonalLoop=1;jettySize=auto;html=1;" edge="1" parent="1" source="xyvcQiCK315FLyUi8cwX-86" target="xyvcQiCK315FLyUi8cwX-88">
          <mxGeometry relative="1" as="geometry" />
        </mxCell>
        <mxCell id="xyvcQiCK315FLyUi8cwX-90" style="edgeStyle=orthogonalEdgeStyle;rounded=0;orthogonalLoop=1;jettySize=auto;html=1;" edge="1" parent="1" source="xyvcQiCK315FLyUi8cwX-91" target="xyvcQiCK315FLyUi8cwX-19">
          <mxGeometry relative="1" as="geometry" />
        </mxCell>
        <mxCell id="xyvcQiCK315FLyUi8cwX-91" value="return Error code 096" style="rounded=1;whiteSpace=wrap;html=1;" vertex="1" parent="1">
          <mxGeometry x="176.25" y="810" width="80" height="50" as="geometry" />
        </mxCell>
        <mxCell id="xyvcQiCK315FLyUi8cwX-92" style="edgeStyle=orthogonalEdgeStyle;rounded=0;orthogonalLoop=1;jettySize=auto;html=1;" edge="1" parent="1" source="xyvcQiCK315FLyUi8cwX-95" target="xyvcQiCK315FLyUi8cwX-91">
          <mxGeometry relative="1" as="geometry" />
        </mxCell>
        <mxCell id="xyvcQiCK315FLyUi8cwX-93" value="" style="edgeStyle=orthogonalEdgeStyle;rounded=0;orthogonalLoop=1;jettySize=auto;html=1;" edge="1" parent="1" source="xyvcQiCK315FLyUi8cwX-88" target="xyvcQiCK315FLyUi8cwX-95">
          <mxGeometry relative="1" as="geometry">
            <mxPoint x="448" y="850" as="sourcePoint" />
            <mxPoint x="300" y="835" as="targetPoint" />
          </mxGeometry>
        </mxCell>
        <mxCell id="xyvcQiCK315FLyUi8cwX-94" value="ไม่" style="edgeLabel;html=1;align=center;verticalAlign=middle;resizable=0;points=[];" vertex="1" connectable="0" parent="xyvcQiCK315FLyUi8cwX-93">
          <mxGeometry x="-0.7326" relative="1" as="geometry">
            <mxPoint as="offset" />
          </mxGeometry>
        </mxCell>
        <mxCell id="xyvcQiCK315FLyUi8cwX-95" value="สร้างข้อมูล ActivityLog&lt;span style=&quot;font-size: medium; text-align: start;&quot;&gt;&lt;/span&gt;" style="rounded=1;whiteSpace=wrap;html=1;" vertex="1" parent="1">
          <mxGeometry x="334.5" y="870" width="77.5" height="40" as="geometry" />
        </mxCell>
        <mxCell id="xyvcQiCK315FLyUi8cwX-96" value="บันทึกข้อมูล&lt;span style=&quot;font-size: medium; text-align: start;&quot;&gt;&lt;/span&gt;" style="rounded=1;whiteSpace=wrap;html=1;" vertex="1" parent="1">
          <mxGeometry x="235" y="870" width="77.5" height="40" as="geometry" />
        </mxCell>
        <mxCell id="xyvcQiCK315FLyUi8cwX-99" style="edgeStyle=orthogonalEdgeStyle;rounded=0;orthogonalLoop=1;jettySize=auto;html=1;entryX=0;entryY=1;entryDx=0;entryDy=0;" edge="1" parent="1" source="xyvcQiCK315FLyUi8cwX-103" target="xyvcQiCK315FLyUi8cwX-19">
          <mxGeometry relative="1" as="geometry">
            <Array as="points">
              <mxPoint x="100" y="1140" />
              <mxPoint x="100" y="755" />
            </Array>
          </mxGeometry>
        </mxCell>
        <mxCell id="OCrG3_BEuux8snf9elzv-45" style="edgeStyle=orthogonalEdgeStyle;rounded=0;orthogonalLoop=1;jettySize=auto;html=1;entryX=0.5;entryY=0;entryDx=0;entryDy=0;" edge="1" parent="1" source="xyvcQiCK315FLyUi8cwX-100" target="OCrG3_BEuux8snf9elzv-3">
          <mxGeometry relative="1" as="geometry" />
        </mxCell>
        <mxCell id="OCrG3_BEuux8snf9elzv-49" value="ใช่" style="edgeLabel;html=1;align=center;verticalAlign=middle;resizable=0;points=[];" vertex="1" connectable="0" parent="OCrG3_BEuux8snf9elzv-45">
          <mxGeometry x="-0.3111" y="1" relative="1" as="geometry">
            <mxPoint as="offset" />
          </mxGeometry>
        </mxCell>
        <mxCell id="xyvcQiCK315FLyUi8cwX-100" value="Active ?" style="rhombus;whiteSpace=wrap;html=1;" vertex="1" parent="1">
          <mxGeometry x="493.75" y="1120" width="48.5" height="40" as="geometry" />
        </mxCell>
        <mxCell id="xyvcQiCK315FLyUi8cwX-101" style="edgeStyle=orthogonalEdgeStyle;rounded=0;orthogonalLoop=1;jettySize=auto;html=1;entryX=1;entryY=0.5;entryDx=0;entryDy=0;" edge="1" parent="1" source="xyvcQiCK315FLyUi8cwX-100" target="xyvcQiCK315FLyUi8cwX-105">
          <mxGeometry relative="1" as="geometry" />
        </mxCell>
        <mxCell id="xyvcQiCK315FLyUi8cwX-102" value="ไม่" style="edgeLabel;html=1;align=center;verticalAlign=middle;resizable=0;points=[];" vertex="1" connectable="0" parent="xyvcQiCK315FLyUi8cwX-101">
          <mxGeometry x="-0.1526" y="-2" relative="1" as="geometry">
            <mxPoint as="offset" />
          </mxGeometry>
        </mxCell>
        <mxCell id="xyvcQiCK315FLyUi8cwX-103" value="return Error code 098" style="rounded=1;whiteSpace=wrap;html=1;" vertex="1" parent="1">
          <mxGeometry x="115" y="1115" width="80" height="50" as="geometry" />
        </mxCell>
        <mxCell id="xyvcQiCK315FLyUi8cwX-104" style="edgeStyle=orthogonalEdgeStyle;rounded=0;orthogonalLoop=1;jettySize=auto;html=1;" edge="1" parent="1" source="xyvcQiCK315FLyUi8cwX-105" target="xyvcQiCK315FLyUi8cwX-103">
          <mxGeometry relative="1" as="geometry" />
        </mxCell>
        <mxCell id="xyvcQiCK315FLyUi8cwX-105" value="สร้างข้อมูล ActivityLog&lt;span style=&quot;font-size: medium; text-align: start;&quot;&gt;&lt;/span&gt;" style="rounded=1;whiteSpace=wrap;html=1;" vertex="1" parent="1">
          <mxGeometry x="364.25" y="1120" width="77.5" height="40" as="geometry" />
        </mxCell>
        <mxCell id="xyvcQiCK315FLyUi8cwX-106" value="บันทึกข้อมูล&lt;span style=&quot;font-size: medium; text-align: start;&quot;&gt;&lt;/span&gt;" style="rounded=1;whiteSpace=wrap;html=1;" vertex="1" parent="1">
          <mxGeometry x="264.75" y="1120" width="77.5" height="40" as="geometry" />
        </mxCell>
        <mxCell id="xyvcQiCK315FLyUi8cwX-107" value="ดึงข้อมูลหัวข้อหลัก ข้อมูลของการประชุมผู้ถือหุ้น" style="rounded=1;whiteSpace=wrap;html=1;" vertex="1" parent="1">
          <mxGeometry x="412" y="950" width="120" height="40" as="geometry" />
        </mxCell>
        <mxCell id="xyvcQiCK315FLyUi8cwX-108" style="edgeStyle=orthogonalEdgeStyle;rounded=0;orthogonalLoop=1;jettySize=auto;html=1;" edge="1" parent="1" source="xyvcQiCK315FLyUi8cwX-110" target="xyvcQiCK315FLyUi8cwX-100">
          <mxGeometry relative="1" as="geometry" />
        </mxCell>
        <mxCell id="xyvcQiCK315FLyUi8cwX-109" value="ใช่" style="edgeLabel;html=1;align=center;verticalAlign=middle;resizable=0;points=[];" vertex="1" connectable="0" parent="xyvcQiCK315FLyUi8cwX-108">
          <mxGeometry x="-0.076" y="-3" relative="1" as="geometry">
            <mxPoint as="offset" />
          </mxGeometry>
        </mxCell>
        <mxCell id="xyvcQiCK315FLyUi8cwX-110" value="มี?" style="rhombus;whiteSpace=wrap;html=1;" vertex="1" parent="1">
          <mxGeometry x="442" y="1020" width="48.5" height="40" as="geometry" />
        </mxCell>
        <mxCell id="xyvcQiCK315FLyUi8cwX-111" value="" style="edgeStyle=orthogonalEdgeStyle;rounded=0;orthogonalLoop=1;jettySize=auto;html=1;" edge="1" parent="1" source="xyvcQiCK315FLyUi8cwX-107" target="xyvcQiCK315FLyUi8cwX-110">
          <mxGeometry relative="1" as="geometry" />
        </mxCell>
        <mxCell id="xyvcQiCK315FLyUi8cwX-112" style="edgeStyle=orthogonalEdgeStyle;rounded=0;orthogonalLoop=1;jettySize=auto;html=1;entryX=0;entryY=1;entryDx=0;entryDy=0;" edge="1" parent="1" source="xyvcQiCK315FLyUi8cwX-113" target="xyvcQiCK315FLyUi8cwX-19">
          <mxGeometry relative="1" as="geometry">
            <mxPoint x="267.25" y="952" as="targetPoint" />
            <Array as="points">
              <mxPoint x="150" y="1025" />
              <mxPoint x="150" y="770" />
              <mxPoint x="255" y="770" />
            </Array>
          </mxGeometry>
        </mxCell>
        <mxCell id="xyvcQiCK315FLyUi8cwX-113" value="return Error code 095" style="rounded=1;whiteSpace=wrap;html=1;" vertex="1" parent="1">
          <mxGeometry x="170.5" y="1000" width="80" height="50" as="geometry" />
        </mxCell>
        <mxCell id="xyvcQiCK315FLyUi8cwX-114" style="edgeStyle=orthogonalEdgeStyle;rounded=0;orthogonalLoop=1;jettySize=auto;html=1;" edge="1" parent="1" source="xyvcQiCK315FLyUi8cwX-117" target="xyvcQiCK315FLyUi8cwX-113">
          <mxGeometry relative="1" as="geometry" />
        </mxCell>
        <mxCell id="xyvcQiCK315FLyUi8cwX-115" value="" style="edgeStyle=orthogonalEdgeStyle;rounded=0;orthogonalLoop=1;jettySize=auto;html=1;" edge="1" parent="1" source="xyvcQiCK315FLyUi8cwX-110" target="xyvcQiCK315FLyUi8cwX-117">
          <mxGeometry relative="1" as="geometry">
            <mxPoint x="442.25" y="1040" as="sourcePoint" />
            <mxPoint x="294.25" y="1025" as="targetPoint" />
          </mxGeometry>
        </mxCell>
        <mxCell id="xyvcQiCK315FLyUi8cwX-116" value="ไม่" style="edgeLabel;html=1;align=center;verticalAlign=middle;resizable=0;points=[];" vertex="1" connectable="0" parent="xyvcQiCK315FLyUi8cwX-115">
          <mxGeometry x="-0.7326" relative="1" as="geometry">
            <mxPoint as="offset" />
          </mxGeometry>
        </mxCell>
        <mxCell id="xyvcQiCK315FLyUi8cwX-117" value="สร้างข้อมูล ActivityLog&lt;span style=&quot;font-size: medium; text-align: start;&quot;&gt;&lt;/span&gt;" style="rounded=1;whiteSpace=wrap;html=1;" vertex="1" parent="1">
          <mxGeometry x="328.75" y="1060" width="77.5" height="40" as="geometry" />
        </mxCell>
        <mxCell id="xyvcQiCK315FLyUi8cwX-118" value="บันทึกข้อมูล&lt;span style=&quot;font-size: medium; text-align: start;&quot;&gt;&lt;/span&gt;" style="rounded=1;whiteSpace=wrap;html=1;" vertex="1" parent="1">
          <mxGeometry x="229.25" y="1060" width="77.5" height="40" as="geometry" />
        </mxCell>
        <mxCell id="xyvcQiCK315FLyUi8cwX-120" value="สิ้นสุด" style="ellipse;whiteSpace=wrap;html=1;" vertex="1" parent="1">
          <mxGeometry x="617.75" y="1952.5" width="100" height="50" as="geometry" />
        </mxCell>
        <mxCell id="xyvcQiCK315FLyUi8cwX-121" style="edgeStyle=orthogonalEdgeStyle;rounded=0;orthogonalLoop=1;jettySize=auto;html=1;" edge="1" parent="1" source="xyvcQiCK315FLyUi8cwX-122" target="xyvcQiCK315FLyUi8cwX-120">
          <mxGeometry relative="1" as="geometry">
            <Array as="points">
              <mxPoint x="443.75" y="1977.5" />
              <mxPoint x="443.75" y="1977.5" />
            </Array>
          </mxGeometry>
        </mxCell>
        <mxCell id="xyvcQiCK315FLyUi8cwX-122" value="1" style="ellipse;whiteSpace=wrap;html=1;aspect=fixed;" vertex="1" parent="1">
          <mxGeometry x="115" y="1942.5" width="50" height="50" as="geometry" />
        </mxCell>
        <mxCell id="OCrG3_BEuux8snf9elzv-26" style="edgeStyle=orthogonalEdgeStyle;rounded=0;orthogonalLoop=1;jettySize=auto;html=1;entryX=0.083;entryY=0.25;entryDx=0;entryDy=0;entryPerimeter=0;" edge="1" parent="1" source="OCrG3_BEuux8snf9elzv-27" target="xyvcQiCK315FLyUi8cwX-120">
          <mxGeometry relative="1" as="geometry">
            <Array as="points">
              <mxPoint x="294" y="1880" />
              <mxPoint x="354" y="1880" />
              <mxPoint x="354" y="1965" />
            </Array>
            <mxPoint x="443.62" y="1908" as="targetPoint" />
          </mxGeometry>
        </mxCell>
        <mxCell id="OCrG3_BEuux8snf9elzv-3" value="Picture?" style="rhombus;whiteSpace=wrap;html=1;" vertex="1" parent="1">
          <mxGeometry x="487.34000000000003" y="1200" width="60" height="60" as="geometry" />
        </mxCell>
        <mxCell id="OCrG3_BEuux8snf9elzv-4" style="edgeStyle=orthogonalEdgeStyle;rounded=0;orthogonalLoop=1;jettySize=auto;html=1;entryX=0.5;entryY=0;entryDx=0;entryDy=0;" edge="1" parent="1" source="OCrG3_BEuux8snf9elzv-3" target="OCrG3_BEuux8snf9elzv-6">
          <mxGeometry relative="1" as="geometry">
            <mxPoint x="517.34" y="1295" as="targetPoint" />
          </mxGeometry>
        </mxCell>
        <mxCell id="OCrG3_BEuux8snf9elzv-5" value="ใช่" style="edgeLabel;html=1;align=center;verticalAlign=middle;resizable=0;points=[];" vertex="1" connectable="0" parent="OCrG3_BEuux8snf9elzv-4">
          <mxGeometry x="-0.1526" y="1" relative="1" as="geometry">
            <mxPoint as="offset" />
          </mxGeometry>
        </mxCell>
        <mxCell id="OCrG3_BEuux8snf9elzv-6" value="ไฟล&lt;br&gt;รูปภาพ ?" style="rhombus;whiteSpace=wrap;html=1;" vertex="1" parent="1">
          <mxGeometry x="371.22" y="1260" width="65" height="65" as="geometry" />
        </mxCell>
        <mxCell id="OCrG3_BEuux8snf9elzv-9" value="ขนาดไฟล&lt;br&gt;&amp;nbsp;&amp;gt; 50mb ?" style="rhombus;whiteSpace=wrap;html=1;" vertex="1" parent="1">
          <mxGeometry x="363.72" y="1347.5" width="80" height="70" as="geometry" />
        </mxCell>
        <mxCell id="OCrG3_BEuux8snf9elzv-10" value="" style="edgeStyle=orthogonalEdgeStyle;rounded=0;orthogonalLoop=1;jettySize=auto;html=1;" edge="1" parent="1" source="OCrG3_BEuux8snf9elzv-6" target="OCrG3_BEuux8snf9elzv-9">
          <mxGeometry relative="1" as="geometry">
            <Array as="points">
              <mxPoint x="402.72" y="1345.5" />
              <mxPoint x="403.72" y="1345.5" />
            </Array>
          </mxGeometry>
        </mxCell>
        <mxCell id="OCrG3_BEuux8snf9elzv-11" value="ใช่" style="edgeLabel;html=1;align=center;verticalAlign=middle;resizable=0;points=[];" vertex="1" connectable="0" parent="OCrG3_BEuux8snf9elzv-10">
          <mxGeometry x="0.4745" y="1" relative="1" as="geometry">
            <mxPoint as="offset" />
          </mxGeometry>
        </mxCell>
        <mxCell id="OCrG3_BEuux8snf9elzv-12" value="rerturn Error Code 043&lt;span style=&quot;font-size: medium; text-align: start;&quot;&gt;&lt;/span&gt;" style="rounded=1;whiteSpace=wrap;html=1;" vertex="1" parent="1">
          <mxGeometry x="177.07" y="1342.5" width="77.5" height="40" as="geometry" />
        </mxCell>
        <mxCell id="OCrG3_BEuux8snf9elzv-13" value="สร้างข้อมูล ActivityLog&lt;span style=&quot;font-size: medium; text-align: start;&quot;&gt;&lt;/span&gt;" style="rounded=1;whiteSpace=wrap;html=1;" vertex="1" parent="1">
          <mxGeometry x="268.72" y="1272.5" width="77.5" height="40" as="geometry" />
        </mxCell>
        <mxCell id="OCrG3_BEuux8snf9elzv-14" style="edgeStyle=orthogonalEdgeStyle;rounded=0;orthogonalLoop=1;jettySize=auto;html=1;" edge="1" parent="1" source="OCrG3_BEuux8snf9elzv-6" target="OCrG3_BEuux8snf9elzv-13">
          <mxGeometry relative="1" as="geometry" />
        </mxCell>
        <mxCell id="OCrG3_BEuux8snf9elzv-15" value="ไม่" style="edgeLabel;html=1;align=center;verticalAlign=middle;resizable=0;points=[];" vertex="1" connectable="0" parent="OCrG3_BEuux8snf9elzv-14">
          <mxGeometry x="0.5378" relative="1" as="geometry">
            <mxPoint as="offset" />
          </mxGeometry>
        </mxCell>
        <mxCell id="OCrG3_BEuux8snf9elzv-16" value="" style="edgeStyle=orthogonalEdgeStyle;rounded=0;orthogonalLoop=1;jettySize=auto;html=1;entryX=0.5;entryY=0;entryDx=0;entryDy=0;" edge="1" parent="1" source="OCrG3_BEuux8snf9elzv-17" target="OCrG3_BEuux8snf9elzv-12">
          <mxGeometry relative="1" as="geometry" />
        </mxCell>
        <mxCell id="OCrG3_BEuux8snf9elzv-17" value="บันทึกข้อมูล&lt;span style=&quot;font-size: medium; text-align: start;&quot;&gt;&lt;/span&gt;" style="rounded=1;whiteSpace=wrap;html=1;" vertex="1" parent="1">
          <mxGeometry x="162.72" y="1272.5" width="77.5" height="40" as="geometry" />
        </mxCell>
        <mxCell id="OCrG3_BEuux8snf9elzv-18" value="" style="edgeStyle=orthogonalEdgeStyle;rounded=0;orthogonalLoop=1;jettySize=auto;html=1;" edge="1" parent="1" source="OCrG3_BEuux8snf9elzv-13" target="OCrG3_BEuux8snf9elzv-17">
          <mxGeometry relative="1" as="geometry" />
        </mxCell>
        <mxCell id="OCrG3_BEuux8snf9elzv-19" value="rerturn Error Code 044&lt;span style=&quot;font-size: medium; text-align: start;&quot;&gt;&lt;/span&gt;" style="rounded=1;whiteSpace=wrap;html=1;" vertex="1" parent="1">
          <mxGeometry x="177.07" y="1487.5" width="77.5" height="40" as="geometry" />
        </mxCell>
        <mxCell id="OCrG3_BEuux8snf9elzv-20" value="สร้างข้อมูล ActivityLog&lt;span style=&quot;font-size: medium; text-align: start;&quot;&gt;&lt;/span&gt;" style="rounded=1;whiteSpace=wrap;html=1;" vertex="1" parent="1">
          <mxGeometry x="278.72" y="1417.5" width="77.5" height="40" as="geometry" />
        </mxCell>
        <mxCell id="OCrG3_BEuux8snf9elzv-21" style="edgeStyle=orthogonalEdgeStyle;rounded=0;orthogonalLoop=1;jettySize=auto;html=1;entryX=0.5;entryY=0;entryDx=0;entryDy=0;" edge="1" parent="1" source="OCrG3_BEuux8snf9elzv-9" target="OCrG3_BEuux8snf9elzv-20">
          <mxGeometry relative="1" as="geometry" />
        </mxCell>
        <mxCell id="OCrG3_BEuux8snf9elzv-22" value="ใช่" style="edgeLabel;html=1;align=center;verticalAlign=middle;resizable=0;points=[];" vertex="1" connectable="0" parent="OCrG3_BEuux8snf9elzv-21">
          <mxGeometry x="-0.6182" y="-1" relative="1" as="geometry">
            <mxPoint as="offset" />
          </mxGeometry>
        </mxCell>
        <mxCell id="OCrG3_BEuux8snf9elzv-23" style="edgeStyle=orthogonalEdgeStyle;rounded=0;orthogonalLoop=1;jettySize=auto;html=1;" edge="1" parent="1" source="OCrG3_BEuux8snf9elzv-24" target="OCrG3_BEuux8snf9elzv-19">
          <mxGeometry relative="1" as="geometry" />
        </mxCell>
        <mxCell id="OCrG3_BEuux8snf9elzv-24" value="บันทึกข้อมูล&lt;span style=&quot;font-size: medium; text-align: start;&quot;&gt;&lt;/span&gt;" style="rounded=1;whiteSpace=wrap;html=1;" vertex="1" parent="1">
          <mxGeometry x="177.07" y="1417.5" width="77.5" height="40" as="geometry" />
        </mxCell>
        <mxCell id="OCrG3_BEuux8snf9elzv-25" style="edgeStyle=orthogonalEdgeStyle;rounded=0;orthogonalLoop=1;jettySize=auto;html=1;entryX=1;entryY=0.5;entryDx=0;entryDy=0;" edge="1" parent="1" source="OCrG3_BEuux8snf9elzv-20" target="OCrG3_BEuux8snf9elzv-24">
          <mxGeometry relative="1" as="geometry" />
        </mxCell>
        <mxCell id="OCrG3_BEuux8snf9elzv-27" value="3" style="ellipse;whiteSpace=wrap;html=1;aspect=fixed;" vertex="1" parent="1">
          <mxGeometry x="268.72" y="1672.5" width="50" height="50" as="geometry" />
        </mxCell>
        <mxCell id="OCrG3_BEuux8snf9elzv-28" style="edgeStyle=orthogonalEdgeStyle;rounded=0;orthogonalLoop=1;jettySize=auto;html=1;entryX=0;entryY=0.5;entryDx=0;entryDy=0;" edge="1" parent="1" source="OCrG3_BEuux8snf9elzv-12" target="OCrG3_BEuux8snf9elzv-27">
          <mxGeometry relative="1" as="geometry">
            <Array as="points">
              <mxPoint x="124.99999999999997" y="1362.5" />
              <mxPoint x="124.99999999999997" y="1617.5" />
              <mxPoint x="184.99999999999997" y="1617.5" />
              <mxPoint x="184.99999999999997" y="1697.5" />
            </Array>
          </mxGeometry>
        </mxCell>
        <mxCell id="OCrG3_BEuux8snf9elzv-29" style="edgeStyle=orthogonalEdgeStyle;rounded=0;orthogonalLoop=1;jettySize=auto;html=1;entryX=0;entryY=0;entryDx=0;entryDy=0;" edge="1" parent="1" source="OCrG3_BEuux8snf9elzv-19" target="OCrG3_BEuux8snf9elzv-27">
          <mxGeometry relative="1" as="geometry" />
        </mxCell>
        <mxCell id="OCrG3_BEuux8snf9elzv-30" style="edgeStyle=orthogonalEdgeStyle;rounded=0;orthogonalLoop=1;jettySize=auto;html=1;" edge="1" parent="1" source="OCrG3_BEuux8snf9elzv-31">
          <mxGeometry relative="1" as="geometry">
            <mxPoint x="448.62" y="1540.0000000000002" as="targetPoint" />
          </mxGeometry>
        </mxCell>
        <mxCell id="OCrG3_BEuux8snf9elzv-31" value="อัปโหลดไฟล์" style="rounded=1;whiteSpace=wrap;html=1;" vertex="1" parent="1">
          <mxGeometry x="348.72" y="1470" width="110" height="42" as="geometry" />
        </mxCell>
        <mxCell id="OCrG3_BEuux8snf9elzv-7" style="edgeStyle=orthogonalEdgeStyle;rounded=0;orthogonalLoop=1;jettySize=auto;html=1;" edge="1" parent="1" source="OCrG3_BEuux8snf9elzv-9" target="OCrG3_BEuux8snf9elzv-31">
          <mxGeometry relative="1" as="geometry">
            <mxPoint x="446.8449999999999" y="1477.5" as="targetPoint" />
          </mxGeometry>
        </mxCell>
        <mxCell id="OCrG3_BEuux8snf9elzv-8" value="ไม่" style="edgeLabel;html=1;align=center;verticalAlign=middle;resizable=0;points=[];" vertex="1" connectable="0" parent="OCrG3_BEuux8snf9elzv-7">
          <mxGeometry x="-0.6238" y="2" relative="1" as="geometry">
            <mxPoint as="offset" />
          </mxGeometry>
        </mxCell>
        <mxCell id="OCrG3_BEuux8snf9elzv-32" value="" style="group" vertex="1" connectable="0" parent="1">
          <mxGeometry x="400.5" y="1650" width="96.25" height="177.5" as="geometry" />
        </mxCell>
        <mxCell id="OCrG3_BEuux8snf9elzv-33" value="แก้ข้อมูลหัวข้อ ข้อมูลของการประชุมผู้ถือหุ้น" style="rounded=1;whiteSpace=wrap;html=1;" vertex="1" parent="OCrG3_BEuux8snf9elzv-32">
          <mxGeometry x="-5" width="106.25" height="42.5" as="geometry" />
        </mxCell>
        <mxCell id="OCrG3_BEuux8snf9elzv-34" value="สร้างข้อมูล ActivityLog&lt;span style=&quot;font-size: medium; text-align: start;&quot;&gt;&lt;/span&gt;" style="rounded=1;whiteSpace=wrap;html=1;" vertex="1" parent="OCrG3_BEuux8snf9elzv-32">
          <mxGeometry x="6.25" y="67.5" width="77.5" height="40" as="geometry" />
        </mxCell>
        <mxCell id="OCrG3_BEuux8snf9elzv-35" value="" style="edgeStyle=orthogonalEdgeStyle;rounded=0;orthogonalLoop=1;jettySize=auto;html=1;entryX=0.543;entryY=-0.009;entryDx=0;entryDy=0;entryPerimeter=0;" edge="1" parent="OCrG3_BEuux8snf9elzv-32" source="OCrG3_BEuux8snf9elzv-33" target="OCrG3_BEuux8snf9elzv-34">
          <mxGeometry relative="1" as="geometry" />
        </mxCell>
        <mxCell id="OCrG3_BEuux8snf9elzv-36" value="บันทึกข้อมูล&lt;span style=&quot;font-size: medium; text-align: start;&quot;&gt;&lt;/span&gt;" style="rounded=1;whiteSpace=wrap;html=1;" vertex="1" parent="OCrG3_BEuux8snf9elzv-32">
          <mxGeometry x="6.25" y="137.5" width="77.5" height="40" as="geometry" />
        </mxCell>
        <mxCell id="OCrG3_BEuux8snf9elzv-37" value="" style="edgeStyle=orthogonalEdgeStyle;rounded=0;orthogonalLoop=1;jettySize=auto;html=1;" edge="1" parent="OCrG3_BEuux8snf9elzv-32" source="OCrG3_BEuux8snf9elzv-34" target="OCrG3_BEuux8snf9elzv-36">
          <mxGeometry relative="1" as="geometry" />
        </mxCell>
        <mxCell id="OCrG3_BEuux8snf9elzv-38" style="edgeStyle=orthogonalEdgeStyle;rounded=0;orthogonalLoop=1;jettySize=auto;html=1;entryX=0;entryY=1;entryDx=0;entryDy=0;" edge="1" parent="1" source="OCrG3_BEuux8snf9elzv-42" target="OCrG3_BEuux8snf9elzv-3">
          <mxGeometry relative="1" as="geometry">
            <Array as="points">
              <mxPoint x="493.62" y="1573" />
              <mxPoint x="493.62" y="1260" />
              <mxPoint x="502.62" y="1260" />
            </Array>
          </mxGeometry>
        </mxCell>
        <mxCell id="OCrG3_BEuux8snf9elzv-39" value="ใช่" style="edgeLabel;html=1;align=center;verticalAlign=middle;resizable=0;points=[];" vertex="1" connectable="0" parent="OCrG3_BEuux8snf9elzv-38">
          <mxGeometry x="-0.8996" relative="1" as="geometry">
            <mxPoint as="offset" />
          </mxGeometry>
        </mxCell>
        <mxCell id="OCrG3_BEuux8snf9elzv-40" style="edgeStyle=orthogonalEdgeStyle;rounded=0;orthogonalLoop=1;jettySize=auto;html=1;" edge="1" parent="1" source="OCrG3_BEuux8snf9elzv-42" target="OCrG3_BEuux8snf9elzv-33">
          <mxGeometry relative="1" as="geometry" />
        </mxCell>
        <mxCell id="OCrG3_BEuux8snf9elzv-41" value="ไม่" style="edgeLabel;html=1;align=center;verticalAlign=middle;resizable=0;points=[];" vertex="1" connectable="0" parent="OCrG3_BEuux8snf9elzv-40">
          <mxGeometry x="-0.1659" relative="1" as="geometry">
            <mxPoint y="2" as="offset" />
          </mxGeometry>
        </mxCell>
        <mxCell id="OCrG3_BEuux8snf9elzv-42" value="มีไฟล&lt;br&gt;รูปภาพอีกไหม ?" style="rhombus;whiteSpace=wrap;html=1;" vertex="1" parent="1">
          <mxGeometry x="416.12" y="1540" width="65" height="65" as="geometry" />
        </mxCell>
        <mxCell id="OCrG3_BEuux8snf9elzv-43" value="" style="edgeStyle=orthogonalEdgeStyle;rounded=0;orthogonalLoop=1;jettySize=auto;html=1;" edge="1" parent="1" source="OCrG3_BEuux8snf9elzv-36" target="xyvcQiCK315FLyUi8cwX-120">
          <mxGeometry relative="1" as="geometry">
            <mxPoint x="480.62" y="1900" as="targetPoint" />
          </mxGeometry>
        </mxCell>
        <mxCell id="OCrG3_BEuux8snf9elzv-1" style="edgeStyle=orthogonalEdgeStyle;rounded=0;orthogonalLoop=1;jettySize=auto;html=1;entryX=1;entryY=0.5;entryDx=0;entryDy=0;" edge="1" parent="1" source="OCrG3_BEuux8snf9elzv-3" target="OCrG3_BEuux8snf9elzv-33">
          <mxGeometry relative="1" as="geometry">
            <Array as="points">
              <mxPoint x="517.62" y="1671" />
            </Array>
          </mxGeometry>
        </mxCell>
        <mxCell id="OCrG3_BEuux8snf9elzv-2" value="ไม่" style="edgeLabel;html=1;align=center;verticalAlign=middle;resizable=0;points=[];" vertex="1" connectable="0" parent="OCrG3_BEuux8snf9elzv-1">
          <mxGeometry x="-0.6813" y="-1" relative="1" as="geometry">
            <mxPoint as="offset" />
          </mxGeometry>
        </mxCell>
      </root>
    </mxGraphModel>
  </diagram>
</mxfile>
